<?xml version="1.0" encoding="UTF-8"?>
<!DOCTYPE svg PUBLIC "-//W3C//DTD SVG 1.1//EN" "http://www.w3.org/Graphics/SVG/1.1/DTD/svg11.dtd">
<!-- Creator: CorelDRAW X7 -->
<svg xmlns="http://www.w3.org/2000/svg" xml:space="preserve" width="210mm" height="297mm" version="1.1" style="shape-rendering:geometricPrecision; text-rendering:geometricPrecision; image-rendering:optimizeQuality; fill-rule:evenodd; clip-rule:evenodd"
viewBox="0 0 21000 29700"
 xmlns:xlink="http://www.w3.org/1999/xlink">
 <defs>
  <style type="text/css">
   <![CDATA[
    .fil2 {fill:black}
    .fil3 {fill:black}
    .fil1 {fill:#FE0000}
    .fil0 {fill:white}
   ]]>
  </style>
 </defs>
 <g id="Layer_x0020_1">
  <metadata id="CorelCorpID_0Corel-Layer"/>
  <g id="_1666483494224">
   <path class="fil0" d="M3054 15488l20 -26c56,-88 133,-153 172,-225 17,-31 23,-56 85,-68 53,-11 117,-27 163,6 3,111 33,396 55,496 8,34 10,80 16,115 8,41 18,72 23,116 7,60 67,224 -10,160 -104,-84 -200,-162 -292,-259 -63,-66 -133,-149 -182,-229 -5,-8 -48,-84 -50,-86zm1648 1338c41,87 98,172 119,262 50,222 60,170 59,399 0,69 0,137 0,206 0,203 14,160 -110,303 -19,22 -29,38 -46,56 -83,88 -160,190 -238,276 -45,49 -143,194 -195,215 -50,-31 -67,-71 -154,-71 -55,0 -149,7 -192,29 -112,54 -180,26 -286,50 -59,14 -142,-4 -206,-8l-191 -35c-34,-8 -47,-15 -93,-24 -71,-13 -279,-91 -311,-145 -68,-115 4,-97 -235,-98 -45,0 -66,1 -82,32l-186 467c-34,-7 -62,-40 -80,-69 -21,-32 -11,-77 -7,-123 12,-129 6,-234 37,-385 12,-55 20,-58 21,-125 1,-38 1,-99 7,-134 14,-68 64,-103 -17,-154 -21,-13 -27,-6 -51,-23 -27,-19 -33,-57 -60,-87 -78,-87 -51,-98 -89,-210 -40,-118 -80,-413 -36,-537 147,-9 228,37 292,146 54,93 105,201 151,298 10,20 9,32 19,54l61 168c15,31 8,23 17,57 7,28 14,23 22,50 52,172 122,368 260,483 27,23 58,34 87,60 72,63 28,45 178,45 63,0 52,5 90,-22 179,-126 95,-49 233,-40 146,9 241,63 389,63 114,0 118,-14 171,-75 39,-44 76,-92 113,-137 56,-67 67,-51 67,-174 -1,-102 12,-141 -31,-217 -28,-51 -60,-98 -103,-139 -90,-86 -126,-104 -205,-170 -31,-25 -48,-27 -76,-49 -48,-39 -97,-63 -154,-96l-317 -174c-246,-125 -537,-308 -722,-521 -57,-65 -117,-132 -158,-208 -13,-24 -25,-58 -37,-87 -16,-37 -16,-61 -32,-95 -8,-20 -32,-73 -31,-85l10 -238c7,-182 64,-360 165,-509 4,-6 24,-28 31,-37 78,-95 151,-177 257,-243 97,-60 210,-125 354,-135 84,-6 141,-19 226,-6 33,6 76,10 108,13 61,6 236,63 293,79 62,19 141,27 200,47 66,22 136,29 190,61 19,11 66,34 84,41 36,13 53,29 97,26 101,-133 141,-309 220,-456 27,-51 63,-91 87,-138l130 -3c10,18 11,17 21,31 28,40 42,78 43,134l-1 390c-3,48 -15,59 -21,103 -5,33 -4,70 -13,106 -35,136 -61,271 -76,410 -6,51 -16,66 -23,101 -7,36 -1,75 -7,109 -7,46 -39,88 -52,134 -5,14 -6,36 -12,46 -16,29 -64,18 -85,-1 -40,-35 -77,-93 -105,-137 -8,-13 -11,-26 -20,-40l-214 -329c-10,-15 -16,-20 -25,-35 -13,-23 -8,-21 -23,-42 -76,-103 -123,-170 -226,-259 -94,-80 -184,-118 -304,-182 -44,-23 -33,-21 -95,-23 -76,-2 -147,-41 -219,-12 -99,40 -132,-10 -223,144 -18,30 -25,46 -47,71l-111 132c-88,122 -78,101 54,308l167 201c42,45 79,76 124,118 90,83 169,156 285,207l118 59c21,12 25,12 43,23 113,70 154,73 247,113 40,17 74,4 110,15 56,18 95,71 126,116 58,82 148,208 231,254 83,46 127,20 219,31zm7416 -1911c58,-46 295,-24 383,-16 45,4 93,-1 139,7 213,36 872,21 1136,22 101,1 86,15 168,-117 35,-58 68,-127 114,-178l64 2c61,144 53,443 44,626 -9,23 -77,46 -112,101 -6,10 -6,11 -14,23 -57,81 -26,50 -58,118 -12,25 -13,15 -21,52 -8,39 -2,37 -39,37 -21,-73 15,-214 -20,-272 -50,8 -46,70 -74,73 -34,3 -50,-66 -83,-123 -42,-70 -18,-84 -123,-83 -65,1 -379,-13 -409,9 -5,5 -12,2 -5,36 5,20 6,22 10,44 7,42 20,47 22,83 -24,25 -42,42 -69,68 -24,22 -55,46 -74,73 -37,55 -73,262 -100,332 -37,95 -37,109 -106,190 -36,43 25,36 70,38 131,4 140,-13 251,-34 148,-28 24,29 160,-60 94,-61 61,-36 79,-134l38 -255c4,-46 -19,-104 -2,-136 15,-24 85,-55 115,62 22,85 14,97 23,190 11,118 -1,282 -34,380 -41,8 -81,-3 -119,15 -11,75 19,308 51,381 9,21 10,46 15,71 9,44 37,100 16,144 -50,-15 -58,-143 -61,-158 -42,-175 -42,-124 -105,-267 -32,-73 -127,-100 -207,-89 -44,5 -76,19 -123,25 -40,5 -94,16 -117,39 -11,36 -11,403 2,433 57,30 48,-28 91,-10 16,14 -3,26 2,87 8,109 13,153 69,245 59,94 134,144 297,133 94,-6 94,-28 139,-76 36,-38 68,-71 104,-109 43,-48 163,-186 212,-208l19 22 -102 161c-35,49 -72,133 -58,216 50,2 143,-90 179,-125 61,-58 240,-270 258,-344 6,-21 23,-226 45,-264l28 4c15,44 15,131 -2,170 -13,28 -25,35 -28,65 -3,37 7,63 -4,100 -9,31 -20,33 -22,70 -3,32 -3,69 -4,103 -10,260 72,284 -26,318 -54,19 -95,33 -156,49 -75,20 -402,-3 -485,16 -33,8 -41,16 -82,20 -84,7 -103,9 -175,26 -86,21 -25,38 -164,36 -148,-3 -498,16 -594,-17 -63,-21 -116,-11 -185,-16 -46,-2 -45,-12 -76,-24 -29,-10 -79,-6 -90,-13 -20,-14 -11,-62 0,-77 31,-46 158,-77 207,-93 38,-12 106,-58 123,-77 39,-41 27,-108 27,-178 0,-269 1,-539 0,-808 0,-207 -19,-133 7,-382 37,-366 95,-399 -164,-585 -19,-14 -39,-23 -58,-37 -58,-44 -127,-90 -157,-150zm-5523 -144c0,0 18,-1 1,55 -49,160 -128,194 -279,271 -115,59 -103,51 -117,196 -11,125 -51,111 -56,262 -3,79 -21,51 -40,117 -11,37 -9,88 -19,132 -11,43 -28,76 -29,125 -2,53 -3,104 -6,155 -4,56 -16,81 -20,139 -13,171 -33,252 29,422 30,80 62,104 85,142 29,47 69,89 112,124 73,60 108,80 192,124l112 47c45,10 99,6 148,6 78,0 78,5 132,-27 65,-39 122,-92 158,-150 16,-26 43,-70 54,-103l37 -124c5,-18 12,-36 17,-56 7,-25 6,-44 12,-68l39 -122c19,-32 35,-74 57,-99 24,-28 45,-54 86,-67 23,35 -6,473 15,601 18,7 43,13 57,23 11,99 -28,188 -66,256 -29,53 -35,54 -113,53l-838 -7c-54,-1 -115,-2 -169,0 -50,2 -101,20 -147,25 -134,16 -969,29 -991,7 -49,-102 64,-106 122,-129 20,-8 17,-13 46,-19 52,-12 213,-64 247,-91 53,-40 130,-192 153,-258 12,-37 6,-80 24,-108 22,-33 50,-31 56,-78l0 -676c-3,-43 -18,-86 -65,-71 -15,44 -7,394 -6,490 1,50 6,53 -31,91 -18,19 0,11 -19,13 -23,-30 -38,-380 -39,-450l-5 -720c1,-49 -6,-58 -32,-84 -19,-19 -44,-42 -69,-56l-76 -40c-28,-12 -17,-11 -39,-21 -141,-67 -199,-79 -243,-191 -16,-41 -15,-41 49,-41 79,-1 137,27 190,53 34,16 38,36 75,43l610 2c115,1 96,-40 167,-78 45,-24 144,-20 205,-38 40,-13 195,-34 227,-2zm3106 -66c59,-19 142,80 190,105 108,57 247,106 376,77 258,-57 83,9 328,7 76,0 98,23 33,114 -28,38 -47,32 -48,98 -1,50 -1,97 1,147 2,70 39,180 67,234l48 98c13,32 35,70 49,99l50 102c44,3 106,-74 98,16l0 29c12,55 79,-25 88,-37 32,-41 40,-105 63,-159l193 -390c4,-26 -18,-169 -35,-187 -16,-15 -31,-12 -55,-1 -29,15 -21,11 -58,23 -24,7 -30,15 -57,22 -114,28 -59,-49 -59,-50 9,-23 7,-45 15,-66 15,-40 46,-62 73,-82 33,-26 45,-44 107,-44 107,0 655,-12 731,55 -22,63 -133,146 -172,162 -96,39 -138,45 -199,147 -36,62 -43,65 -83,145l-324 645c-11,23 -11,12 -21,38 -49,122 -30,168 -28,318 0,60 -9,532 6,561 18,34 140,62 158,70 62,26 178,83 202,142 18,44 19,41 45,73 49,57 6,84 6,85l-35 5c-71,1 -62,-18 -73,-33 -24,-34 -77,-37 -132,-37 -36,-1 -75,-1 -111,1 -39,2 -62,13 -102,15 -144,8 -186,23 -310,28 -51,2 -48,16 -62,55 -75,-3 -173,-54 -326,-55 -63,0 -340,13 -372,-7 -60,-46 40,-146 163,-183 44,-13 80,-4 115,-21 90,-43 187,-69 214,-173 32,-125 3,-23 60,-132 15,-28 12,-20 26,-40 33,-51 49,-154 29,-215l-86 -236c-133,-309 -149,-316 -289,-556l-134 -255c-14,-27 -35,-60 -48,-85 -206,-380 -216,-252 -326,-314 -66,-37 -129,-46 -164,-101 -101,-163 73,-67 188,-104 25,-89 -30,-115 -13,-153zm-612 634l-55 124c-55,137 -29,321 45,432 26,39 55,64 83,94 28,30 58,67 70,105 13,41 17,120 -4,151 -19,28 -21,19 -22,66 -2,116 -15,96 114,188 193,137 116,141 249,368 17,30 24,35 41,64 29,49 94,131 111,194 39,145 87,115 179,230 -129,113 -340,18 -370,14 -47,-7 -39,-14 -72,-24 -64,-19 -108,13 -152,36 -37,21 -32,11 -77,20 -29,6 -41,21 -66,-2 -46,-41 -3,-88 -111,-88 -85,0 -75,30 -129,62 -48,27 -104,43 -163,17 -14,-68 71,-239 96,-325l38 -118c35,-95 85,-107 26,-195 -56,-82 -154,-122 -284,-151 -59,-13 -129,-3 -195,-18 -35,-8 -61,-9 -95,-15 -47,-9 -42,-27 -91,-23l-106 320c-25,101 15,78 72,123 57,44 73,44 143,69 2,1 39,64 41,101 -101,91 -85,67 -248,90 -50,7 -105,3 -156,11 -32,5 -37,13 -62,19 -25,6 -53,4 -78,9 -75,17 -51,28 -108,-29 -69,-70 -77,-97 -163,-87 -44,5 -32,12 -49,40 -19,32 -99,32 -137,22 -21,-61 6,-81 45,-107 121,-83 145,-73 258,-73 70,-1 87,-3 145,-23 85,-28 128,-91 152,-179 13,-49 26,-73 25,-135 -4,-178 7,-198 -66,-134 -27,23 -52,21 -97,19 -10,-27 -27,-64 -34,-92 -9,-41 -26,-78 15,-86l224 -35c131,-23 165,-185 191,-325l57 -198c7,-31 9,-19 18,-39 9,-22 6,-34 14,-54 8,-23 10,-14 21,-44 20,-55 96,-187 80,-236 -9,-28 -25,-17 -25,-106 -1,-50 -6,-80 16,-117 66,-109 117,-238 147,-367 21,-91 -3,-153 -15,-233 -22,-151 174,24 205,201 6,37 23,58 25,97 2,41 -4,92 7,129 16,54 71,124 111,147 28,17 47,36 79,52 31,16 60,29 87,44zm6102 -1089c28,-12 39,-4 66,8 118,54 402,47 514,87 56,20 99,7 157,16 47,7 71,38 139,32 87,-7 125,18 203,43 23,8 48,7 71,16 83,30 167,52 243,95 31,19 79,60 101,67 80,25 66,-18 126,51 44,50 -10,82 43,127 137,117 122,182 161,360 24,105 20,211 13,321 -9,129 -79,260 -145,367 -11,18 -21,38 -33,56 -35,52 -160,201 -201,232 -32,24 -67,38 -106,62 -59,38 -16,80 -78,89 -108,15 -194,62 -156,181 9,30 44,84 59,110 43,73 148,276 190,327 -67,45 -102,-56 -166,-48 -39,4 -28,63 -13,85l38 57c58,82 115,169 189,238 18,16 9,9 24,28 25,32 27,16 59,36 4,5 18,123 78,126 9,1 120,-57 163,-66 21,49 48,115 77,151 36,46 52,101 90,145 21,25 39,38 58,60 30,34 1,72 98,136 253,167 261,98 442,137 34,8 67,10 102,15 46,6 53,18 94,27 83,18 76,56 66,169 -72,20 -471,-11 -508,21 -18,16 -46,99 -60,123 -32,4 -197,7 -225,2 -90,-16 -49,-215 -239,-227 -74,-4 -156,-2 -232,-2 -89,0 -263,8 -345,0 -79,-8 -163,-263 -188,-332 -24,-68 -60,-135 -81,-205l-266 -660c-26,-55 -51,-105 -76,-160 -14,-30 -136,-281 -168,-297 -31,-12 -195,-15 -217,5 -17,17 -12,37 -12,71 2,173 -10,1251 4,1278 24,22 77,52 108,65 44,18 96,1 153,24 48,19 75,25 123,53 30,18 81,63 58,112l-114 8c-34,2 -68,10 -103,11 -112,5 -230,-1 -337,23 -34,7 -77,6 -114,11 -34,4 -68,12 -101,17 -40,7 -74,6 -111,11l-195 43c-56,20 -163,14 -229,13 -93,0 -424,17 -483,-4 -17,-60 141,-144 185,-163 45,-19 130,-34 170,-49 62,-24 225,-18 250,-38 29,-23 13,-216 16,-269 4,-50 18,-71 24,-116 8,-62 -5,-147 7,-207 7,-40 54,-88 41,-174 -6,-39 -15,-75 -20,-121 -6,-48 -20,-75 -22,-124 -5,-94 0,-199 3,-294 6,-193 -32,-355 -32,-544 0,-153 15,-435 -9,-569 -32,-181 -14,-364 -25,-550 -3,-49 -38,-323 -59,-375 -13,-31 -16,-11 -18,-56 -1,-26 0,-46 -6,-67 -26,-9 -35,-5 -65,-9 -21,-2 -40,-10 -65,-15 -140,-26 -177,-9 -301,-80 -47,-27 -106,-53 -146,-90 -66,-62 4,-55 62,-58 128,-8 170,-4 287,16 58,10 43,27 124,27 108,1 166,5 263,50 143,66 216,104 377,95 209,-13 117,-101 151,-167zm-1391 -1274c-7,83 -8,166 -54,240 -89,142 -196,303 -329,407l-172 122c-12,9 -91,47 -138,82 -22,16 -23,12 -47,26 -27,15 -64,36 -91,56 -48,34 -44,31 -112,23 -83,-10 -185,-45 -307,-61 -29,-4 -30,-9 -54,-18l-419 -98c-24,-6 -31,-12 -54,-19 -20,-6 -39,-6 -60,-12l-167 -54c-43,-17 -85,-96 -95,-125 -20,-61 -15,-159 -102,-266 -85,-104 -77,-25 -77,-215 0,-107 -4,-343 2,-442 4,-56 26,-50 31,-113 5,-60 15,-127 41,-179l109 -258c56,-95 203,-236 298,-289 65,-36 123,-67 191,-103l306 -134c46,-18 51,-34 106,-9 77,35 235,18 369,72 22,10 75,45 97,51 34,9 29,-5 57,15 79,57 189,103 224,144l211 229c46,50 85,100 117,177l78 217c22,91 42,127 46,247 3,94 3,195 -5,287zm-2633 124c0,53 -9,388 20,415 16,14 7,4 25,11 29,12 3,-9 25,13 14,46 -13,183 15,212 28,28 165,-10 206,-17 57,-9 41,31 41,72 0,104 -150,66 -309,67 -126,0 -634,58 -706,30 -16,-6 -20,-11 -33,-19 -1,-1 -17,-11 -18,-12l-17 -15c22,-44 50,-56 96,-76 33,-14 90,-42 124,-51 46,-13 83,-32 119,-51 57,-30 78,-6 62,-100 -9,-48 -6,-106 -14,-155 -21,-124 -16,-182 9,-303 13,-61 33,-63 24,-154 -21,-40 -107,-42 -82,-142 26,-104 28,-99 28,-217 0,-89 -9,-145 -35,-219 -16,-43 -66,-132 -101,-146 -93,43 -125,206 -167,293 -10,21 -36,97 -41,120 -20,82 -70,203 -88,294 -7,33 -13,34 -20,60 -8,25 -5,44 -14,69l-97 292c-15,30 -29,78 -41,112 -12,33 -39,82 -50,113 -25,73 -60,154 -98,217 -38,63 -87,129 -155,159 -68,-99 -50,-375 -48,-519 0,-68 -32,-189 -58,-232 -40,-30 -68,66 -122,98 -40,-34 -75,-62 -95,-116 -4,-13 -6,-29 -10,-41l-77 -188c-5,-14 -6,-23 -14,-37l-126 -307c-7,-18 -6,-28 -14,-45 -21,-49 -47,-99 -69,-144 -21,-43 -71,-265 -138,-268 -49,-1 -30,71 -30,163 -2,383 -9,695 19,1087 5,83 75,220 118,283 40,57 100,115 165,142 6,3 28,12 35,16 26,15 19,-3 24,31 -50,25 -590,9 -714,9 -39,0 -79,1 -118,0 -52,-1 -67,-13 -85,-47 10,-23 23,-33 40,-53 63,-74 122,-30 204,-82 61,-39 158,-143 158,-225 0,-177 11,-1472 -6,-1539 -13,-49 -48,-108 -81,-145 -22,-26 -34,-33 -82,-33 -86,0 -246,19 -318,-23 -103,-59 -23,-58 16,-60 28,-1 54,-2 81,-3l213 1c61,0 92,7 123,-30 35,-43 14,-76 28,-132 8,-4 2,-4 17,-3 35,5 104,47 133,65 49,31 88,54 134,86 27,20 35,25 68,42 25,14 41,43 80,21 12,-6 37,-47 49,-61 26,-29 46,-20 96,-20 93,0 87,19 138,94 139,202 61,182 120,366 25,79 11,134 24,219 6,36 19,57 25,91 9,55 14,47 32,92l36 82c11,26 27,64 38,87 42,86 64,166 107,253 14,28 25,59 38,87 90,194 133,39 197,-89 9,-19 9,-27 16,-44 8,-19 12,-17 18,-38 7,-21 5,-29 13,-48l51 -132c8,-27 9,-19 18,-40 8,-21 7,-35 13,-54 9,-24 11,-14 19,-38 6,-19 4,-28 12,-49 6,-16 12,-19 18,-42l66 -242c19,-58 149,-359 56,-407 -48,-25 -123,-41 -168,-75 -5,-98 21,-72 127,-76 95,-3 115,27 183,31 34,2 69,1 103,3 46,2 43,19 82,26 50,10 118,-22 190,-22 199,0 183,-34 382,-34 50,0 105,-5 154,2 3,0 5,0 7,1l13 3c1,0 4,1 6,2 12,48 -98,116 -146,133 -15,5 -29,6 -46,13 -20,8 -67,26 -80,36 -38,29 -55,107 -68,166l-50 185c-32,185 -42,223 -39,433 3,158 -9,311 -9,462zm-4941 -1453c46,-31 480,-15 578,-15 140,0 735,-14 848,12 74,16 170,26 255,16l165 -289c25,-3 26,-1 49,2 34,6 32,1 47,19 11,15 13,582 1,604 -24,39 -83,13 -133,153 -6,17 -6,29 -13,47 -34,93 -16,69 -48,79 -12,-53 12,-211 -19,-239 -44,-28 -47,33 -118,37 -20,-40 -44,-87 -61,-130 -25,-62 -14,-55 -136,-55 -81,0 -317,-9 -376,6 -16,61 20,103 19,167 -32,20 -92,88 -123,118 -58,58 -36,98 -58,185 -21,87 -25,173 -88,271 -20,31 -43,36 -42,83 58,17 146,18 199,-5 127,-55 354,88 354,-362 0,-68 -18,-171 16,-216l84 -5c25,59 30,79 35,155 2,28 9,43 14,70 17,94 -5,352 -56,398 -39,-14 -37,-52 -85,-2 -55,57 9,172 12,217 2,41 -8,70 11,99 51,76 36,39 67,147 11,36 6,102 16,145 0,1 6,23 6,23 0,2 0,5 1,6 0,2 -1,5 -1,6l-39 19c-82,-196 -62,-333 -136,-451l-69 -78c-63,-60 -107,-49 -234,-22 -50,10 -96,3 -140,15 -23,54 -13,146 -13,216 0,66 -13,171 12,218 42,6 17,-19 74,-8 11,50 -8,127 8,182l103 192c22,34 76,75 121,79 43,4 155,10 185,-15l146 -147c34,-34 65,-66 99,-100 68,-68 79,-97 102,-74 33,34 -45,119 -64,150 -49,79 -66,108 -52,180 57,14 86,-30 161,-101 110,-105 192,-195 255,-332 39,-83 25,-216 30,-268 25,-18 30,-27 69,-13 14,33 -13,144 -24,186 -8,36 -4,70 -12,105 -21,101 -83,302 -43,412 13,36 23,42 19,94 -104,61 -156,36 -295,64 -191,37 -315,-20 -508,36 -29,8 -37,17 -65,22 -228,47 -282,15 -474,23 -109,4 -162,22 -284,-7 -97,-22 -277,-12 -352,-84 34,-78 123,-95 170,-113 37,-14 74,-22 108,-39 47,-23 60,-31 60,-91 0,-53 -12,-1312 9,-1362 17,-41 76,-52 52,-254 -11,-88 -143,-202 -223,-244 -52,-27 -40,-23 -91,-65 -17,-15 -76,-55 -85,-72zm9750 -115c11,19 30,44 41,62 42,70 149,258 181,332 18,40 35,36 18,62 -19,-13 -8,-7 -23,-26 -32,-43 -49,-84 -75,-130l-35 -68c-10,-21 -5,-14 -17,-34 -18,-27 -32,-39 -43,-59l-120 -190c-53,-80 -118,-159 -172,-240 -57,-87 -166,-182 -128,-252 20,8 9,6 19,22l354 521zm725 -1032l-31 438c-16,107 3,221 -29,325 -26,85 -4,247 -11,345 -6,79 -26,114 -29,199 -5,160 -3,311 -1,470 3,273 -23,814 5,1051 4,35 18,53 21,96 6,72 31,124 52,183 34,91 92,188 156,257 19,21 22,8 15,31l-24 7c-34,3 -108,-25 -136,-41 -29,-16 -20,-17 -66,-14 -15,22 -44,66 -68,78 -21,11 -95,22 -124,18 -19,-40 -8,-69 -23,-115 -7,-23 -8,-25 -14,-52 -9,-42 -11,-24 -22,-54 -53,-149 12,-75 -98,-181 -66,-64 -111,-168 -162,-256 -21,-34 -39,-58 -54,-85 -68,-122 -138,-229 -214,-346l-474 -650c-117,-145 -204,-232 -331,-367 -112,-118 -224,-246 -357,-341 -53,-37 -97,-95 -169,-78 -60,14 -59,106 -62,161l-22 169c1,79 25,77 -7,160 -39,103 -8,227 -38,339 -31,113 -15,243 -22,361 -3,61 -18,116 -23,169 -6,69 3,320 -15,357 -47,98 -14,225 33,304 72,121 226,275 374,288 33,2 62,-2 87,8 -1,23 -49,85 -64,108 -51,4 -103,-1 -155,0 -74,1 -81,15 -135,26 -82,16 -520,9 -636,9 -80,0 -254,17 -305,-16 -1,-56 72,-88 112,-116 124,-84 309,-206 393,-319 60,-79 112,-177 137,-274 7,-25 12,-28 16,-41 16,-50 6,-1653 6,-1892 0,-108 12,-121 -39,-195 -34,-49 -122,-95 -176,-124l-118 -60c-19,-9 -20,-7 -40,-18 -21,-13 -16,-8 -40,-19 -62,-29 -238,-118 -249,-164 -5,-18 -3,-45 4,-55 17,-22 280,-38 318,-46 82,-17 587,-68 624,-87 145,-73 172,-123 351,-49 33,14 13,5 37,22 86,60 193,83 280,138 25,16 55,28 85,34 64,12 34,10 59,57 59,109 204,14 184,288 -7,93 -84,48 -131,109 7,50 99,115 133,159 11,15 15,30 27,47l177 271c13,19 18,32 30,50 61,93 193,286 237,366 64,114 167,253 251,352 34,40 107,135 164,135 44,-59 27,-205 27,-292 0,-109 11,-589 -4,-657 -13,-59 -8,-74 -42,-117 -15,-18 -24,-22 -25,-56 -1,-26 -1,-62 1,-89 9,-232 114,-240 62,-394 -14,-41 -19,-90 -41,-127 -16,-27 -71,-55 -113,-40 -48,17 -72,114 -83,165 -6,26 -14,37 -21,60 -12,38 -23,88 -45,124 -30,-16 -11,0 -24,-39 -43,-123 -71,-245 -68,-381 3,-163 96,-101 237,-146 40,-13 75,-7 116,-15 36,-6 60,-18 104,-22 156,-12 180,-103 271,-108 111,-7 362,14 459,52 3,58 -17,89 -43,126 -36,48 -36,51 -122,45 -74,-6 -236,-46 -300,-19zm-13654 196c-15,-90 -65,-254 -120,-331 -121,6 -31,106 -127,141 -42,-77 -230,-302 -266,-464 -14,-61 23,-43 74,-42 53,1 186,-11 232,10 38,17 23,22 84,22 72,0 141,-1 214,0 70,1 119,19 184,26 63,6 145,-1 205,7 61,8 0,25 191,25 50,0 164,-6 207,4 38,9 40,18 86,21 380,25 194,21 581,15 100,-2 303,-17 339,53 19,36 -2,51 -17,66 40,36 23,24 84,41 32,9 51,34 74,52 77,57 127,74 206,109l99 36c19,5 26,4 45,12 65,29 184,62 233,83 102,42 171,133 199,242 17,70 104,307 116,386 6,38 22,68 27,105 5,38 2,74 17,107 12,28 32,51 38,86 6,39 -2,81 7,119 5,23 13,27 20,45 13,37 15,122 22,161 12,74 36,143 41,211 6,89 11,426 -4,501 -29,141 -124,192 -229,240l-20 12c-16,27 9,42 25,69 52,91 32,71 2,140 -8,17 -5,19 -15,36 -11,20 -4,2 -16,29l-96 198c-57,110 -267,529 -284,598l-192 63c-89,19 -345,110 -398,116 -30,4 -73,19 -101,32 -34,17 -30,31 -73,54 -77,42 -87,66 -189,30 -86,-31 -79,-94 -173,-87 -120,9 -141,140 -367,140l-1448 0c-74,0 -79,9 -115,-36 -25,-32 -39,-57 -50,-94 62,-55 34,-23 110,-54 63,-25 173,-41 208,-52l175 -73c117,-62 69,-79 115,-222 21,-63 9,-248 12,-327 2,-55 19,-84 25,-143 3,-27 1,-56 5,-83 28,-186 10,-221 14,-405l16 -321c23,-163 22,-289 22,-443 0,-345 19,-865 -31,-1182 -6,-35 -19,-56 -23,-84zm5917 -2039c66,-4 46,6 52,13 -28,19 -73,20 -104,8 13,-21 18,-20 52,-21zm2788 -32c-22,-8 -10,-5 -23,-20 15,-7 42,-5 64,-5 62,1 46,5 56,24 -25,8 -87,5 -97,1zm-162 -29c-21,-7 -11,-5 -22,-19 14,-8 42,-6 63,-5 65,3 48,11 53,17 -14,9 12,1 -17,9l-77 -2zm-226 -34c-13,-6 -7,-5 -15,-12 13,-9 62,-9 83,-8 66,2 58,-2 78,22l-127 3c-17,-2 -4,2 -19,-5zm348 -23c-29,-7 -18,-10 -24,-19 14,-12 108,-7 112,-6 38,9 16,8 25,21 -24,10 -100,7 -113,4zm-81 -38c-31,15 -85,12 -116,-2 4,-21 92,-16 116,2zm-669 -65c75,-4 188,-25 246,9 -58,10 -202,21 -246,-9zm-5830 1799l-12 -7 -8 -6 -6 -9 -8 -7 -9 -5 -8 -7 -4 -10c-35,-25 -16,-22 -38,-58 -75,-125 -132,-69 -136,-129 -25,-18 -8,-18 -21,-54l-177 2c-34,74 35,57 -260,60 -105,1 -218,3 -322,-3 -107,-6 -174,-33 -288,-33 -54,0 -108,2 -162,0 -67,-2 -78,-23 -125,-28 -49,-4 -109,2 -161,-2 -45,-4 -92,-14 -142,-20 -109,-14 -202,-6 -314,-10 -62,-2 -21,-44 -286,-34 -111,5 -231,-37 -243,-37 -57,-3 -29,41 -14,123 17,103 68,236 118,324l233 354c116,4 102,-24 152,-33 37,58 33,110 45,152 34,120 15,172 35,288 20,119 4,385 3,519 -1,172 6,349 0,522 -2,42 -10,66 -11,117l-14 382c-2,41 -11,77 -13,117 -7,147 12,359 -16,505 -9,45 -18,55 -19,113 -2,83 -1,170 -6,250 -3,67 -11,65 -21,111 -9,48 -1,74 -28,104 -14,16 -16,17 -39,26 -211,90 -355,74 -530,184 -4,76 -11,127 18,174 23,38 88,154 129,162l287 1c79,0 731,-11 751,7 17,12 12,6 12,38l-2 155c-1,99 22,190 -26,199l-88 -2c-181,-3 -294,14 -461,91 -228,105 -438,310 -548,555 -8,18 -12,17 -20,38l-62 214c-4,40 -10,63 -14,96 -12,93 -4,212 -12,319 -4,56 8,48 25,81l59 160c32,112 204,306 281,382 38,38 74,72 116,105l574 368c14,7 18,10 32,18 66,40 137,69 214,117l141 80c92,59 178,117 257,182 41,35 80,67 112,109 55,73 53,96 52,165 0,130 14,95 -49,169 -70,84 -106,155 -175,155l-187 -35c-38,-16 -50,-9 -92,-17 -20,-7 -36,-14 -54,-18 -30,-5 -44,0 -71,-11l-8 -7c-34,-14 -52,-40 -66,-43 -30,-4 -144,84 -174,103 -104,69 -169,-6 -196,-22 -94,-52 -146,-121 -185,-217l-77 -196c-7,-19 -7,-33 -15,-51l-84 -246c-64,-149 -170,-418 -292,-518 -134,-108 -181,-89 -322,-90 -49,0 -85,-5 -98,34 -6,20 -24,219 -24,246 0,85 10,171 22,254 6,45 20,67 26,104 21,113 48,214 110,297 46,61 29,56 50,83 24,31 42,37 71,59 5,82 -19,238 -31,322 -21,141 -31,153 -38,321 -9,207 -50,165 52,279l176 186c52,-13 33,-40 58,-84l180 -430c7,-18 6,-36 16,-51 16,-24 77,-28 103,-13 34,18 20,52 53,78 55,44 170,87 232,114 18,8 30,9 51,16 86,29 127,42 219,54 47,7 69,19 109,23 53,4 198,20 234,36 -17,35 -108,73 -62,120 20,13 44,-13 57,-26l124 -129 87 5 89 -17c27,-30 193,-69 247,-39 40,22 111,100 131,103 28,5 31,-14 47,-26 33,-48 81,-100 121,-146 21,-24 41,-45 62,-69 13,-15 18,-23 30,-37 23,-27 32,-44 63,-14l390 519c119,149 323,368 453,496l331 306 196 129c126,94 277,207 417,281l379 223c120,66 237,126 365,180 106,44 268,125 373,161 77,26 169,69 245,89l335 105c70,30 255,61 343,88 32,10 60,7 91,14 31,8 43,19 85,23l572 86c138,9 262,27 404,29 278,5 569,13 845,-4 212,-13 334,-26 499,-159 45,-36 75,-111 99,-123 32,-15 207,0 269,-5 36,-3 43,-13 75,-19 72,-14 60,1 155,-26 27,-8 49,-6 76,-13l351 -114c56,-22 210,-100 265,-108 23,73 75,132 158,136 81,4 145,-79 179,-115 32,-34 253,-290 284,-307 35,11 20,18 59,24 71,-73 35,-126 306,-295 21,-13 45,-31 62,-41 142,-88 292,-174 407,-299 59,-65 54,-83 84,-120 59,9 36,60 81,97 39,-7 104,-98 136,-131 176,-187 367,-358 525,-562 19,-25 35,-53 55,-77l182 -296c20,-46 28,-111 50,-151 48,51 90,110 166,43 47,-41 90,-85 135,-129 28,-27 109,-111 141,-123 73,-29 412,-32 506,-33 87,0 125,-33 175,-96 38,-47 -21,-123 -46,-171 -32,-59 -110,-82 -153,-121 4,-50 46,-64 83,-87 18,-12 34,-27 47,-34 35,-20 39,0 43,-48 -6,-4 -6,-5 -16,-9 -34,-15 -67,-19 -102,-36 -18,-9 -8,-2 -19,-13l65 -56c27,-18 42,-39 72,-48 35,54 53,128 73,176 36,83 141,378 176,425 34,45 65,102 107,136 20,17 41,12 75,12 60,-1 119,0 179,0 80,-1 160,0 240,0 322,0 148,27 306,187 84,84 106,16 202,48 2,0 4,0 5,-1l149 -2c77,0 67,-31 84,-66 6,-14 8,-17 17,-36 4,-10 8,-18 16,-25 27,-23 313,-12 367,-12 71,0 178,15 186,-26 0,-2 1,-4 1,-7l1 -66c0,-30 0,-59 0,-88 0,-50 10,-127 -7,-166 -19,-36 -317,-111 -364,-114 -38,-2 -109,9 -132,-17 -32,-1 -95,-6 -122,-16 -14,-5 -79,-37 -94,-45 -150,-88 -28,-100 -126,-153 -28,-16 -50,-44 -66,-74 -52,-101 -96,-156 -146,-278 -12,-35 -25,-48 -40,-79 -54,3 -55,10 -117,40 -23,12 -11,14 -39,19 -16,-31 3,-59 -35,-75 -42,-17 -53,8 -92,-25 -27,-22 -99,-89 -106,-119 158,-97 132,-76 -26,-352l-144 -251c33,-63 144,-4 201,-18 18,-54 -18,-75 1,-123l56 -33c18,-12 48,-19 63,-32 28,-22 3,-31 78,-107 33,-34 56,-55 85,-98 14,-21 64,-98 77,-107l98 -202c52,-121 95,-307 74,-439 -10,-58 -17,-109 -26,-173 -19,-139 -65,-263 -155,-361 -28,-30 -17,-36 -20,-85l-68 -77c-18,-18 -52,-61 -78,-68 -69,-20 -51,18 -116,-31 -28,-20 -61,-42 -91,-56 -17,-9 -37,-18 -49,-23l-162 -58c-21,-8 -40,-6 -62,-13l-137 -47c-32,-13 -10,9 -28,-18 -12,-31 -12,-155 8,-181 37,32 15,63 92,59 31,-27 28,-35 52,-70 48,-8 141,12 206,-1 33,-7 27,-16 62,-20 4,12 8,26 14,39 40,73 18,68 59,93 26,-13 5,-12 37,-20 22,-4 27,-1 51,-8 2,-52 -19,-75 -7,-132 41,-3 49,11 88,16 34,5 67,7 101,9l23 5 16 6 71 13 88 9 52 9c5,-50 -6,-33 -30,-67 -23,-13 -155,-156 -185,-188 -67,-71 -99,-116 -153,-221 -46,-87 -70,-185 -80,-292 -20,-199 -28,-528 -15,-726 8,-117 17,-246 8,-364 -22,-278 -1,-286 11,-524 4,-68 21,-44 27,-165l-3 -196 3 -72c6,-65 34,-37 25,-135 -12,-136 25,-335 33,-480l7 -26 39 1c60,1 107,5 165,12 21,3 57,13 76,12 39,-4 20,-20 59,-29 20,-69 115,-105 115,-252 0,-51 -6,-129 -45,-144l-144 -33c-55,-1 -92,-18 -146,-20 -54,-2 -295,-9 -332,5l-97 65 -6 6 -26 8c-32,25 -163,29 -213,43 -45,12 -59,12 -110,17 -43,5 -62,18 -102,24l-46 3c-49,5 -61,17 -90,34 -55,96 -75,5 -76,220 0,143 27,249 61,375l59 164c6,21 14,26 21,51 11,35 24,74 45,93 43,-19 29,-28 51,-67 43,-74 87,-144 121,-221 24,31 -6,59 -11,90 -11,64 -24,284 11,320 29,30 39,30 42,84 5,80 10,289 -4,350 -37,-14 -13,3 -33,-41 -32,-75 -133,-219 -179,-277 -18,-21 -33,-56 -52,-80 -21,-27 -51,-42 -68,-64l-261 -393c-13,-22 -10,-21 -27,-40 -81,-87 2,-117 -82,-241 -46,-66 -62,-83 -153,-106l11 -98c-26,-12 -94,-29 -130,-33 -62,-6 -66,-28 -99,-61 -54,-56 -103,-103 -159,-157 -57,-55 -113,-97 -170,-146 -36,-31 -147,-122 -192,-130 7,43 -7,6 21,37l283 254c32,31 81,64 94,107 -51,-2 -82,-30 -108,-57 -127,-130 -254,-262 -395,-376 -97,-78 -88,-105 -145,-157 -15,-13 -28,-21 -48,-34 -22,-14 -22,-17 -41,-32 -54,-43 -128,-82 -184,-124 -88,-65 -188,-126 -282,-181l-98 -56c-92,-64 -401,-214 -503,-261l-215 -93c-24,-8 -88,-33 -110,-45 -23,-11 -30,-9 -54,-19l-398 -139c-30,-7 -31,-12 -54,-19l-179 -49c-38,-16 -82,-18 -122,-33 -48,-18 -71,-6 -124,-30 -28,-13 -65,-6 -97,-13 -41,-10 -11,0 -26,-14 10,-9 1,-4 18,-10l59 -2c29,2 41,8 64,15 46,16 93,8 130,23 47,18 93,9 131,23 55,20 64,14 127,14l-189 -68c-28,-7 -53,-2 -78,-12 -69,-27 -92,-17 -139,-36 -43,-17 -119,-10 -145,-35 2,-1 4,-3 6,-3l19 -8c58,-13 117,13 168,20 28,3 67,1 93,8 25,7 49,18 81,16 -18,-29 -48,-30 -92,-39 -65,-13 -157,-50 -221,-58 -56,-8 -61,-1 -112,-21 -34,-13 -86,-8 -124,-16 -153,-34 -445,-69 -601,-78 -88,-5 -166,-1 -250,-17 -66,-13 -187,-7 -264,-7 -47,0 -94,0 -140,2 -29,1 -63,3 -81,17l-10 10c116,17 481,12 537,30 -17,24 19,7 -27,21 -37,12 -119,0 -162,2 -22,0 -35,2 -47,20 85,23 253,32 356,33 65,0 99,17 164,24 41,5 93,0 136,9l33 16c-83,32 -232,-12 -289,-14 -99,-5 -200,-7 -301,-7 -202,0 -404,4 -603,6 -110,1 -706,69 -827,104 -46,14 -83,1 -131,21 -31,13 -99,26 -131,5 15,-21 43,-19 68,-22 49,-6 31,-9 62,-20 25,-9 52,-7 77,-12 29,-5 34,-12 59,-19 24,-7 54,-5 81,-9 28,-3 37,-11 63,-17 48,-12 96,-9 147,-23l297 -42c57,-2 106,-1 160,-9 37,-5 105,-3 128,-34 -76,-25 -227,4 -291,-18 8,-32 19,-34 54,-35 26,-1 52,4 72,-5 -56,-24 -160,12 -202,-22 26,-27 274,-80 295,-159 -5,-36 -8,-32 -47,-40 -50,-12 -122,6 -206,6 -103,1 -181,15 -276,23 -50,9 -99,6 -148,16 -53,12 -76,17 -134,22 -53,5 -80,21 -127,26 -25,3 -48,3 -71,9 -29,7 -25,13 -62,18 -22,5 -45,3 -68,9 -23,5 -32,13 -56,18 -26,5 -46,4 -70,11 -19,5 -33,13 -56,18 -22,5 -44,5 -67,12 -19,7 -28,13 -56,18l-460 143c-46,13 -67,29 -115,34 -53,18 -134,51 -187,75l-486 218c-2,2 -7,6 -9,7 -21,12 -21,13 -44,1l53 -37c67,-48 535,-262 613,-291 33,-11 36,-10 64,-24 24,-12 36,-10 58,-22l117 -46c33,-8 39,-16 68,-26 35,-12 41,-20 67,-29 106,-37 269,-116 407,-166l149 -44c34,-13 19,-16 70,-22 49,-7 40,-14 73,-24 29,-9 58,-3 85,-13 31,-12 25,-17 71,-24 45,-6 42,1 74,-20 41,-28 34,1 68,-21l-35 -5c-78,4 -105,19 -185,25 -45,3 -43,11 -78,21 -28,8 -57,6 -82,12 -33,8 -39,17 -83,22l-540 149 -719 282c-41,13 -29,16 -75,29 -30,8 -38,17 -66,28 -58,22 -79,39 -103,51l-628 319 -363 233c-23,13 -38,24 -56,39l-511 394c-17,16 -31,27 -50,44 -37,33 -70,61 -107,92 -150,127 -351,345 -497,493 -55,0 -40,-8 -80,-30z"/>
   <path class="fil1" d="M17260 18463c-96,-32 -118,36 -202,-48 -158,-160 16,-187 -306,-187 -80,0 -160,-1 -240,0l15 16c-20,86 -12,144 -53,223 -24,46 -87,116 -122,139 -49,-50 8,-155 -17,-209 -37,15 -51,81 -82,105 -30,24 -75,49 -111,66 -45,21 -82,44 -112,71 -70,62 -52,79 -89,92 -40,-80 -24,-194 -47,-246 -44,-2 -32,-2 -55,37 -11,18 -18,32 -30,50 -44,64 -82,141 -135,196 -95,98 -102,61 -155,8 -43,36 -24,47 -41,104 -17,59 -57,151 -92,203 -37,55 -72,124 -116,177 -25,29 -41,53 -64,83l-137 158c-160,179 -351,346 -502,526 -31,37 -27,60 -80,62 -37,-88 -26,-115 -85,-116 -19,55 0,29 -34,76 -76,106 -178,192 -288,262 -89,58 -180,109 -263,170l-127 86c-47,32 -82,66 -117,104 -38,41 -54,79 -83,127 -101,-19 -39,-63 -154,63l-223 239c-61,65 -94,123 -197,118 -112,-5 -116,-79 -165,-140 -22,7 -53,21 -76,33 -106,57 -456,174 -588,210 -27,8 -55,6 -83,14 -60,18 -108,17 -167,31 -103,23 -314,1 -375,20 -25,19 -13,22 -27,49 -31,61 -87,108 -145,142 -206,120 -202,77 -377,105 -190,30 -634,18 -832,16 -91,-1 -182,-2 -272,-8 -86,-7 -167,-20 -257,-23 -77,-2 -158,-22 -258,-28l-874 -175c-28,-6 -23,-10 -48,-18l-171 -44c-101,-42 -267,-79 -361,-124l-101 -38c-190,-63 -363,-158 -547,-232 -27,-11 -22,-13 -44,-23 -66,-30 -126,-66 -187,-92 -59,-24 -124,-69 -179,-100 -34,-20 -57,-30 -91,-48l-172 -107c-102,-66 -204,-123 -298,-194 -71,-53 -140,-93 -206,-148 -31,-24 -50,-38 -81,-58 -31,-19 -50,-42 -78,-62 -16,-12 -27,-17 -45,-29l-414 -350c-95,-89 -126,-105 -255,-163l-143 -71c-26,-15 -10,-15 -57,-14 15,35 55,65 86,89 68,51 496,413 571,486 13,13 38,33 23,47 -26,10 -105,-47 -131,-63 -38,-24 -84,-54 -119,-80 -37,-28 -81,-58 -117,-88l-225 -180c-43,-32 -66,-56 -108,-90l-214 -190c-70,-66 -140,-129 -211,-193 -66,-60 -151,-132 -208,-196 -30,-35 -61,-73 -92,-114l-235 -272c-25,-25 -35,-18 -39,-58l-89 17c38,124 119,70 131,395 5,130 11,245 28,372 3,21 6,39 12,54 2,5 9,19 13,24 12,16 6,8 16,15l15 -31c12,-69 2,-176 38,-232 35,7 137,113 160,143 46,61 78,118 111,198 51,123 173,233 291,289 5,2 11,5 16,7 1,1 4,5 4,3 1,-1 4,2 5,4 -44,57 -222,18 -259,88 196,64 289,240 390,404 34,55 55,119 91,174 2,-9 3,7 -3,-10 -6,-15 -3,1 -3,-7 43,66 -10,47 45,68 40,-78 -4,-219 76,-281 67,10 81,79 111,128 11,19 19,34 30,51 89,133 202,301 267,446l73 155c1,-1 3,3 4,4 24,-35 7,-96 24,-130l99 95c37,29 73,59 112,86 77,54 152,108 229,159 56,37 356,205 241,288 -28,21 -90,27 -132,58 113,44 334,-28 446,83 -22,30 -137,61 -183,79 -11,4 -22,9 -29,14 -24,16 -10,0 -23,24 16,16 6,9 30,17 12,4 20,4 33,10 26,10 29,12 62,19 90,19 171,57 259,81 143,39 419,141 515,240 87,88 -132,97 -198,92 -48,-5 -188,-42 -232,-11 7,18 1,13 19,22l398 131c55,20 188,36 255,34 323,-6 274,-284 489,-357 136,-47 244,-29 381,-10 39,5 92,0 119,19 -44,48 -153,65 -183,119 54,19 389,-40 451,-65 46,-19 64,5 90,24l154 111c108,68 59,49 165,0 254,-117 556,-84 825,-68 162,10 334,27 499,30 140,2 363,-5 496,-28 44,-7 66,-15 114,-21 40,-4 66,-18 103,-27 45,-12 60,-21 97,-35 28,-10 61,-29 93,-41 88,-34 390,-6 501,-2 127,5 241,1 368,-14 63,-7 308,-71 372,-94 49,-17 117,-15 129,-68 -38,-14 -171,-37 -192,-56 27,-22 109,-16 149,-24 50,-10 108,-11 159,-17 92,-10 196,-39 293,-52 94,-13 195,-46 288,-59l143 -33c43,-12 89,-22 134,-34 44,-11 103,-18 146,-32 95,-30 197,-30 291,-54l297 -48c56,-6 96,-17 148,-22l271 -36c47,-14 11,1 28,-20 -60,-21 -108,-15 -175,-46 19,-39 55,-48 94,-77 30,-22 55,-54 81,-81 172,-185 315,-321 566,-425l133 -36c169,-29 202,-68 348,-145 59,-32 329,-290 298,-344 -32,14 -85,61 -117,84 -145,102 -125,94 -284,179 -14,8 -12,10 -31,19 -12,6 -28,13 -36,16 -25,11 -4,10 -36,7 15,-43 128,-105 161,-131 337,-262 269,-474 579,-877 43,-56 222,-276 278,-296 12,22 10,31 19,53 40,-24 125,-197 145,-233 43,-79 93,-156 134,-234l134 -232c31,-49 121,-193 130,-240z"/>
   <path class="fil1" d="M11284 7975c-69,-7 -149,-6 -219,-11 -49,-4 -154,2 -187,-36 12,-11 14,-15 47,-17l397 -1c167,7 427,65 600,86 43,6 54,19 91,25 44,6 55,2 96,17 40,15 65,9 98,19 50,16 5,20 85,25 58,4 52,23 82,29 42,9 64,-13 88,23 -64,21 -88,-15 -147,-20 -97,-8 -85,-24 -140,-27l-488 -69c-62,-16 -137,-16 -211,-19 -65,-2 -130,-18 -192,-24zm474 -314c-47,-18 -42,6 -63,-29 28,-21 128,11 165,15l411 65 529 139c61,10 38,16 74,26 15,4 32,2 44,6 37,13 15,0 23,25 -38,11 -52,6 -92,-9l-174 -41c-32,-4 -56,-7 -86,-16l-173 -37c-35,-7 -62,-4 -96,-16 -11,-4 -20,-14 -41,-8 -21,6 -7,0 -17,13l-7 15c-13,-5 -127,-35 -145,-38l-282 -84c-52,-11 -36,-14 -70,-26zm-2800 -269c-21,11 -54,27 -83,28 -1,0 -20,11 -20,11 -21,17 4,-17 -15,17 33,1 70,5 101,-3 28,-7 30,-17 67,-20 80,-8 63,11 119,-17 45,-23 75,-10 123,-15 24,-3 39,-13 71,-19l319 -38c89,-5 81,0 162,-17 54,-11 198,-11 264,-9 24,1 55,2 75,17 -43,15 -178,17 -237,19l-359 29c-35,6 -54,18 -104,21 -35,2 -95,-2 -124,2 -28,4 -47,22 -97,27 -49,4 -73,2 -116,17 -48,16 -62,8 -109,15 -39,5 -63,22 -98,25 -21,2 -46,-2 -66,1 -34,5 -12,4 -43,17 -35,14 -74,12 -111,23l-305 72c-13,12 -3,7 -29,7 -1,11 12,10 -15,7 -7,10 6,2 -10,10 -13,7 -1,4 -22,4 -39,3 -221,75 -267,87 -113,29 -397,155 -517,205l-440 229 -250 162c-76,49 -140,97 -210,150l-410 316c-391,323 -777,671 -1127,1035l-172 190c4,60 61,4 136,129 22,36 3,33 38,58l4 10 8 7 9 5 8 7 6 9 8 6 12 7 -12 -7 -8 -6 -6 -9 -8 -7 -9 -5 -8 -7 -4 -10c1,-36 1,-26 20,-46l215 -219c127,-122 245,-249 375,-368l127 -115c45,-40 87,-80 132,-118 87,-74 187,-140 274,-218l361 -256c74,-43 151,-100 226,-142 30,-17 44,-30 77,-49 198,-111 398,-227 606,-318 84,-37 166,-82 253,-114 23,-9 19,-11 39,-19 18,-8 33,-9 51,-16l266 -103c76,-23 141,-57 215,-85l177 -74c57,-27 118,-41 178,-63 95,-35 192,-56 286,-88l399 -93c14,-1 43,-2 56,-5 28,-7 8,-9 40,-18 33,-9 77,-4 113,-13l206 -43c34,-8 73,-8 107,-12 97,-11 34,-18 219,-27 56,-3 173,-31 219,-9 -25,13 -62,12 -96,17 -45,7 -51,22 -93,26 -37,4 -72,2 -109,7 -34,6 -59,16 -91,20 -39,6 -70,3 -108,12 -31,6 -55,16 -90,19 -41,4 -268,36 -297,48 -34,14 -67,7 -102,17 -42,11 -34,15 -92,24 -45,7 -134,50 -175,55l-131 37c-26,10 -11,11 -38,20 -46,17 -69,0 -25,41 -73,15 -68,30 -112,42l-284 93c-27,8 -27,14 -50,22 -114,40 -217,76 -325,124 -220,98 -444,200 -640,329 -53,36 -185,99 -226,142 10,5 -4,9 25,3 28,-6 74,-43 105,-56l312 -151c24,-13 63,-34 87,-45l93 -39c31,-12 64,-27 92,-41 65,-30 125,-46 189,-76 110,-52 275,-104 390,-138l405 -118c63,-20 141,-42 212,-52 44,-7 56,-22 104,-27l223 -44c40,-11 68,-9 108,-16 34,-7 75,-19 109,-23 41,-4 82,-4 121,-12 49,-9 57,-15 114,-18 124,-7 547,-66 607,-13 -29,48 -172,82 -244,111 -178,74 -435,40 -622,90 -65,18 -253,21 -305,49l35 5c-34,22 -27,-7 -68,21 -32,21 -29,14 -74,20 -46,7 -40,12 -71,24 -27,10 -56,4 -85,13 -33,10 -24,17 -73,24 -51,6 -36,9 -70,22l-149 44c-138,50 -301,129 -407,166 -26,9 -32,17 -67,29 -29,10 -35,18 -68,26 16,35 0,22 -28,31l-100 55c-26,12 -28,5 -51,33 48,-5 69,-21 115,-34l460 -143c28,-5 37,-11 56,-18 23,-7 45,-7 67,-12 23,-5 37,-13 56,-18 24,-7 44,-6 70,-11 24,-5 33,-13 56,-18 23,-6 46,-4 68,-9l-51 -9c18,-10 36,-17 62,-19 65,-6 24,-4 68,-22 22,-8 50,-6 77,-12 23,-6 28,-16 57,-21 26,-5 54,-4 82,-9 24,-5 44,-14 62,-18l439 -64c26,0 64,2 88,-2 31,-4 157,-45 228,-9 -39,18 -99,12 -147,17 -44,4 -82,27 -139,30 -30,1 -56,1 -82,9 -97,30 -112,13 -202,38 95,-8 173,-22 276,-23 84,0 156,-18 206,-6 39,8 42,4 47,40 44,-34 262,-40 335,-42 59,-1 114,-12 171,-17 155,-15 641,-8 843,-8 14,0 31,1 45,1l34 -5c2,-1 4,-2 6,-2 1,-1 4,-2 6,-3 -42,-32 -75,-5 -88,-37 65,-28 256,11 317,17 110,11 213,20 318,36 52,8 13,16 148,27 64,5 28,16 149,28 40,4 43,13 68,22 23,7 53,4 79,10 43,9 29,20 64,25 44,7 44,-12 69,21 -57,17 -68,-12 -127,-15 -119,-8 -71,-16 -124,-26 -45,-10 -87,-3 -137,-18 -51,-16 -82,-14 -147,-12 20,19 37,11 71,24l220 56c42,6 33,15 66,23 34,7 50,5 82,17l851 270c102,31 478,199 584,254 24,13 47,24 64,32 104,51 489,262 591,335l226 150c26,18 29,23 55,40 223,154 106,109 219,199l228 198c158,147 316,313 465,469 17,18 29,32 45,50 25,28 36,24 35,61 29,-17 41,-29 90,-34 -27,-43 -247,-260 -279,-292l-276 -253c-15,-18 -6,4 -13,-24 28,2 9,-3 35,17l51 45c110,92 109,86 239,209l267 255c23,21 33,17 22,40 40,-6 59,-19 102,-24 51,-5 65,-5 110,-17 50,-14 181,-18 213,-43l-295 -299c-116,-119 -225,-197 -321,-290l-676 -535c-59,-44 -116,-83 -177,-124 -143,-95 -410,-273 -557,-355l-744 -432c-31,-14 -9,8 -24,-19 26,-19 30,-8 53,5 15,9 -3,2 25,13 10,3 14,3 27,9l1052 549 322 215c66,41 432,327 514,397 32,28 51,47 81,73 120,103 208,179 318,292 104,105 207,200 306,311 51,57 134,132 128,176l-6 6 6 -6 97 -65c37,-14 278,-7 332,-5 54,2 91,19 146,20 -13,-26 -61,-60 -86,-82 -124,-105 -175,-27 -279,-74 -41,-18 -83,-35 -110,-66l-199 -322c-28,-36 -54,-62 -81,-94 -228,-264 -385,-373 -635,-586 -34,-29 -69,-51 -41,-103 88,-12 170,67 245,68 -7,-20 -3,-11 -13,-24 -42,-57 -282,-152 -352,-171 -119,-31 -298,-94 -401,-157 -55,-34 -112,-75 -175,-105 -20,-10 -22,-14 -42,-24 -27,-12 -28,-15 -48,-25 -33,-16 -63,-29 -93,-46 -57,-34 -128,-64 -184,-95l-370 -188c-26,-13 -67,-36 -92,-48 -208,-100 -223,-123 -474,-225l-1041 -348c-42,-9 -72,-22 -109,-30 -96,-19 -250,-67 -334,-84 -76,-15 -163,-29 -233,-48 -37,-10 -80,-11 -118,-21l-232 -45c-43,-6 -89,-5 -129,-13 -253,-47 -786,-70 -1053,-65 -109,2 -416,21 -523,36 -45,6 -80,11 -123,13l-363 59 -451 108z"/>
   <path class="fil2" d="M5233 12153c-7,55 17,6 -6,143 -8,48 -2,99 -17,144l-45 286c-5,68 -69,309 -102,382 -75,170 -50,142 -173,319 -97,140 -233,242 -415,241 -54,0 -108,0 -162,0 -77,0 -95,10 -132,-39 -44,-58 -89,-146 -101,-220l-51 -192c-7,-22 -6,-52 -11,-78 -5,-24 -14,-39 -19,-61l-36 -205c-7,-221 -52,-367 -55,-441 -9,-183 -5,-292 -1,-478 5,-210 26,-418 27,-632 1,-188 27,-234 29,-314 2,-95 -5,-258 9,-345l25 -150c14,-62 30,-79 68,-108 33,-25 57,-58 115,-58 146,-3 360,-13 491,35 92,34 109,124 139,164l61 5c23,45 39,45 68,153l51 175c7,40 4,55 17,93 11,33 35,226 57,282 14,36 10,56 21,88 6,18 11,19 17,35 6,15 6,29 13,46 41,113 114,195 162,296 32,66 60,73 61,169 0,98 43,76 32,184 -10,99 -61,41 -137,81zm-2433 -1647c96,-35 6,-135 127,-141 55,77 105,241 120,331 4,28 17,49 23,84 50,317 31,837 31,1182 0,154 1,280 -22,443l-16 321c-4,184 14,219 -14,405 -4,27 -2,56 -5,83 -6,59 -23,88 -25,143 -3,79 9,264 -12,327 -46,143 2,160 -115,222l-175 73c-35,11 -145,27 -208,52 -76,31 -48,-1 -110,54 11,37 25,62 50,94 36,45 41,36 115,36l1448 0c226,0 247,-131 367,-140 94,-7 87,56 173,87 102,36 112,12 189,-30 43,-23 39,-37 73,-54 28,-13 71,-28 101,-32 53,-6 309,-97 398,-116l192 -63c17,-69 227,-488 284,-598l96 -198c12,-27 5,-9 16,-29 10,-17 7,-19 15,-36 30,-69 50,-49 -2,-140 -16,-27 -41,-42 -25,-69l20 -12c105,-48 200,-99 229,-240 15,-75 10,-412 4,-501 -5,-68 -29,-137 -41,-211 -7,-39 -9,-124 -22,-161 -7,-18 -15,-22 -20,-45 -9,-38 -1,-80 -7,-119 -6,-35 -26,-58 -38,-86 -15,-33 -12,-69 -17,-107 -5,-37 -21,-67 -27,-105 -12,-79 -99,-316 -116,-386 -28,-109 -97,-200 -199,-242 -49,-21 -168,-54 -233,-83 -19,-8 -26,-7 -45,-12l-99 -36c-79,-35 -129,-52 -206,-109 -23,-18 -42,-43 -74,-52 -61,-17 -44,-5 -84,-41 15,-15 36,-30 17,-66 -36,-70 -239,-55 -339,-53 -387,6 -201,10 -581,-15 -46,-3 -48,-12 -86,-21 -43,-10 -157,-4 -207,-4 -191,0 -130,-17 -191,-25 -60,-8 -142,-1 -205,-7 -65,-7 -114,-25 -184,-26 -73,-1 -142,0 -214,0 -61,0 -46,-5 -84,-22 -46,-21 -179,-9 -232,-10 -51,-1 -88,-19 -74,42 36,162 224,387 266,464z"/>
   <path class="fil2" d="M5798 19740l-182 -133c-34,-24 -62,-41 -97,-64 -35,-22 -59,-43 -91,-63 -255,-163 -485,-340 -729,-521 -23,-17 -314,-263 -351,-274 -16,12 -19,31 -47,26 -20,-3 -91,-81 -131,-103 -54,-30 -220,9 -247,39 4,40 14,33 39,58l235 272c31,41 62,79 92,114 57,64 142,136 208,196 71,64 141,127 211,193l214 190c42,34 65,58 108,90l225 180c36,30 80,60 117,88 35,26 81,56 119,80 26,16 105,73 131,63 15,-14 -10,-34 -23,-47 -75,-73 -503,-435 -571,-486 -31,-24 -71,-54 -86,-89 47,-1 31,-1 57,14l143 71c129,58 160,74 255,163l414 350c18,12 29,17 45,29 28,20 47,43 78,62 31,20 50,34 81,58 66,55 135,95 206,148 94,71 196,128 298,194l172 107c34,18 57,28 91,48 55,31 120,76 179,100 61,26 121,62 187,92 22,10 17,12 44,23 184,74 357,169 547,232l101 38c94,45 260,82 361,124l171 44c25,8 20,12 48,18l874 175c100,6 181,26 258,28 90,3 171,16 257,23 90,6 181,7 272,8 198,2 642,14 832,-16 175,-28 171,15 377,-105 58,-34 114,-81 145,-142 14,-27 2,-30 27,-49 61,-19 272,3 375,-20 59,-14 107,-13 167,-31 28,-8 56,-6 83,-14 132,-36 482,-153 588,-210 23,-12 54,-26 76,-33 49,61 53,135 165,140 103,5 136,-53 197,-118l223 -239c115,-126 53,-82 154,-63 29,-48 45,-86 83,-127 35,-38 70,-72 117,-104l127 -86c83,-61 174,-112 263,-170 110,-70 212,-156 288,-262 34,-47 15,-21 34,-76 59,1 48,28 85,116 53,-2 49,-25 80,-62 151,-180 342,-347 502,-526l137 -158c23,-30 39,-54 64,-83 44,-53 79,-122 116,-177 35,-52 75,-144 92,-203 17,-57 -2,-68 41,-104 53,53 60,90 155,-8 53,-55 91,-132 135,-196 12,-18 19,-32 30,-50 23,-39 11,-39 55,-37 23,52 7,166 47,246 37,-13 19,-30 89,-92 30,-27 67,-50 112,-71 36,-17 81,-42 111,-66 31,-24 45,-90 82,-105 25,54 -32,159 17,209 35,-23 98,-93 122,-139 41,-79 33,-137 53,-223l-15 -16c-60,0 -119,-1 -179,0 -34,0 -55,5 -75,-12 -42,-34 -73,-91 -107,-136 -35,-47 -140,-342 -176,-425 -20,-48 -38,-122 -73,-176 -30,9 -45,30 -72,48l-65 56c11,11 1,4 19,13 35,17 68,21 102,36 10,4 10,5 16,9 -4,48 -8,28 -43,48 -13,7 -29,22 -47,34 -37,23 -79,37 -83,87 43,39 121,62 153,121 25,48 84,124 46,171 -50,63 -88,96 -175,96 -94,1 -433,4 -506,33 -32,12 -113,96 -141,123 -45,44 -88,88 -135,129 -76,67 -118,8 -166,-43 -22,40 -30,105 -50,151l-182 296c-20,24 -36,52 -55,77 -158,204 -349,375 -525,562 -32,33 -97,124 -136,131 -45,-37 -22,-88 -81,-97 -30,37 -25,55 -84,120 -115,125 -265,211 -407,299 -17,10 -41,28 -62,41 -271,169 -235,222 -306,295 -39,-6 -24,-13 -59,-24 -31,17 -252,273 -284,307 -34,36 -98,119 -179,115 -83,-4 -135,-63 -158,-136 -55,8 -209,86 -265,108l-351 114c-27,7 -49,5 -76,13 -95,27 -83,12 -155,26 -32,6 -39,16 -75,19 -62,5 -237,-10 -269,5 -24,12 -54,87 -99,123 -165,133 -287,146 -499,159 -276,17 -567,9 -845,4 -142,-2 -266,-20 -404,-29l-572 -86c-42,-4 -54,-15 -85,-23 -31,-7 -59,-4 -91,-14 -88,-27 -273,-58 -343,-88l-335 -105c-76,-20 -168,-63 -245,-89 -105,-36 -267,-117 -373,-161 -128,-54 -245,-114 -365,-180l-379 -223c-140,-74 -291,-187 -417,-281l-196 -129z"/>
   <path class="fil1" d="M17393 12654c-32,-16 -33,-53 -20,-85 34,14 35,43 20,85zm-568 -1998c-8,145 -45,344 -33,480 9,98 -19,70 -25,135 17,-19 1,-6 22,-15l204 332c54,101 84,181 132,280l228 602c15,37 30,50 14,98 -28,-12 -9,3 -22,-17 -9,-15 1,-21 -21,-66 -18,-36 1,-13 -33,-78l-31 -86c-30,-69 -43,-115 -85,-202 -8,-16 -7,-23 -13,-38 -57,-128 -276,-564 -352,-670 -13,-18 -10,-17 -21,-37l-25 -31 3 196c0,0 16,-7 19,-9 14,28 24,40 41,62 93,127 195,290 261,438 9,22 21,45 34,70 35,67 182,442 196,500l55 153c8,40 20,43 28,72l149 547c3,42 13,50 21,79 7,24 7,56 13,82 9,40 18,35 22,81 2,23 5,66 10,87 6,26 7,9 15,35 6,17 3,25 5,47 3,29 5,54 8,87 30,0 14,4 30,-8 -11,-41 -37,11 -27,-174 -24,-23 -24,-8 -25,-58 -1,-30 0,-48 7,-72 36,11 13,-18 28,27 0,3 3,33 3,39 5,57 14,21 30,145 4,28 11,42 19,71 11,46 8,106 18,160 37,193 24,146 -52,154 -24,3 -48,3 -71,6 -50,6 -54,37 -99,38 -15,-6 -155,-344 -163,-366l-51 -124c-34,-77 -118,-295 -162,-368 -11,-19 -5,-2 -16,-28 -10,-22 -29,-61 -52,-71 -12,34 31,120 46,158 6,15 7,31 13,46 8,19 10,14 18,34 47,124 64,221 99,326 44,133 17,52 -36,141 -15,25 -26,57 -47,73 24,34 35,17 30,67l-52 -9c-1,34 -31,89 -71,87 -33,-2 -68,-62 -68,-95l51 -1 -71 -13 -16 -6 -23 -5 23 5 16 6c8,25 -5,15 -9,52 -3,20 -1,59 -1,81 1,52 1,108 5,160 5,75 13,237 -6,303 3,49 -8,55 20,85 90,98 136,222 155,361 9,64 16,115 26,173 21,132 -22,318 -74,439l-98 202c37,28 -14,301 12,354 37,-9 115,-187 158,-150 20,16 12,113 9,137 -35,305 -205,187 -234,214 -9,13 -8,-2 -8,29l27 106c20,42 37,71 64,104 59,73 99,79 183,148 91,76 8,165 -36,225l-101 157c-22,33 -11,35 -36,36 50,122 94,177 146,278 16,30 38,58 66,74 98,53 -24,65 126,153 15,8 80,40 94,45 27,10 90,15 122,16 22,-37 42,-93 62,-133l249 -686c6,-24 7,-16 14,-36 41,-111 93,-313 146,-456l101 -363c11,-32 13,-33 21,-74l33 -159c6,-27 14,-38 19,-69 16,-87 50,-238 57,-313 6,-62 21,-102 27,-162 6,-56 10,-112 19,-166l38 -334c32,-535 32,-904 0,-1441 -3,-48 -15,-114 -18,-170 -4,-61 -6,-113 -10,-175 -3,-56 -14,-106 -18,-168 -3,-47 4,-128 -21,-162 -20,17 -9,16 -26,33 -24,23 -10,-6 -31,24 -4,-308 -71,-508 -178,-784 -23,-63 -47,-134 -79,-193l-217 -488c0,-2 -1,-4 -2,-6l-28 -73c-10,-24 -14,-19 -22,-45 -15,-47 -5,-33 -30,-44 -27,71 21,152 14,228 -39,-23 -186,-241 -213,-285 -78,-126 -240,-431 -319,-511 -39,9 -20,25 -59,29 -19,1 -55,-9 -76,-12 -58,-7 -105,-11 -165,-12 11,13 33,57 84,114l117 169c13,21 28,40 38,57 16,30 18,31 32,64 6,13 3,8 11,19 12,16 0,-7 10,12 10,19 8,9 1,28 -28,-12 -12,-7 -23,-28 -14,-29 -36,-43 -61,-86l-80 -112c-28,-41 -56,-67 -84,-107 -24,-35 -52,-86 -91,-105z"/>
   <path class="fil2" d="M16041 14762c35,7 30,14 62,23 178,53 147,58 186,161 43,111 162,448 162,528 0,69 -24,77 -33,141 -20,127 30,195 -23,244l-220 170c-103,74 -296,134 -422,134 -122,1 -217,8 -314,-37 -92,-44 -154,-80 -160,-189 -7,-156 9,-175 62,-289 24,-53 77,-133 120,-223 37,-78 62,-185 35,-292 -11,-47 -15,-100 -31,-142l-69 -275c-2,-58 66,-43 122,-43 95,1 52,32 146,31 181,-3 130,8 231,25 26,5 53,3 77,12 30,11 26,12 69,21zm543 -215c-76,-43 -160,-65 -243,-95 -23,-9 -48,-8 -71,-16 -78,-25 -116,-50 -203,-43 -68,6 -92,-25 -139,-32 -58,-9 -101,4 -157,-16 -112,-40 -396,-33 -514,-87 -27,-12 -38,-20 -66,-8 -34,66 58,154 -151,167 -161,9 -234,-29 -377,-95 -97,-45 -155,-49 -263,-50 -81,0 -66,-17 -124,-27 -117,-20 -159,-24 -287,-16 -58,3 -128,-4 -62,58 40,37 99,63 146,90 124,71 161,54 301,80 25,5 44,13 65,15 30,4 39,0 65,9 6,21 5,41 6,67 2,45 5,25 18,56 21,52 56,326 59,375 11,186 -7,369 25,550 24,134 9,416 9,569 0,189 38,351 32,544 -3,95 -8,200 -3,294 2,49 16,76 22,124 5,46 14,82 20,121 13,86 -34,134 -41,174 -12,60 1,145 -7,207 -6,45 -20,66 -24,116 -3,53 13,246 -16,269 -25,20 -188,14 -250,38 -40,15 -125,30 -170,49 -44,19 -202,103 -185,163 59,21 390,4 483,4 66,1 173,7 229,-13l195 -43c37,-5 71,-4 111,-11 33,-5 67,-13 101,-17 37,-5 80,-4 114,-11 107,-24 225,-18 337,-23 35,-1 69,-9 103,-11l114 -8c23,-49 -28,-94 -58,-112 -48,-28 -75,-34 -123,-53 -57,-23 -109,-6 -153,-24 -31,-13 -84,-43 -108,-65 -14,-27 -2,-1105 -4,-1278 0,-34 -5,-54 12,-71 22,-20 186,-17 217,-5 32,16 154,267 168,297 25,55 50,105 76,160l266 660c21,70 57,137 81,205 25,69 109,324 188,332 82,8 256,0 345,0 76,0 158,-2 232,2 190,12 149,211 239,227 28,5 193,2 225,-2 14,-24 42,-107 60,-123 37,-32 436,-1 508,-21 10,-113 17,-151 -66,-169 -41,-9 -48,-21 -94,-27 -35,-5 -68,-7 -102,-15 -181,-39 -189,30 -442,-137 -97,-64 -68,-102 -98,-136 -19,-22 -37,-35 -58,-60 -38,-44 -54,-99 -90,-145 -29,-36 -56,-102 -77,-151 -43,9 -154,67 -163,66 -60,-3 -74,-121 -78,-126 -32,-20 -34,-4 -59,-36 -15,-19 -6,-12 -24,-28 -74,-69 -131,-156 -189,-238l-38 -57c-15,-22 -26,-81 13,-85 64,-8 99,93 166,48 -42,-51 -147,-254 -190,-327 -15,-26 -50,-80 -59,-110 -38,-119 48,-166 156,-181 62,-9 19,-51 78,-89 39,-24 74,-38 106,-62 41,-31 166,-180 201,-232 12,-18 22,-38 33,-56 66,-107 136,-238 145,-367 7,-110 11,-216 -13,-321 -39,-178 -24,-243 -161,-360 -53,-45 1,-77 -43,-127 -60,-69 -46,-26 -126,-51 -22,-7 -70,-48 -101,-67z"/>
   <path class="fil2" d="M4702 16826c-92,-11 -136,15 -219,-31 -83,-46 -173,-172 -231,-254 -31,-45 -70,-98 -126,-116 -36,-11 -70,2 -110,-15 -93,-40 -134,-43 -247,-113 -18,-11 -22,-11 -43,-23l-118 -59c-116,-51 -195,-124 -285,-207 -45,-42 -82,-73 -124,-118l-167 -201c-132,-207 -142,-186 -54,-308l111 -132c22,-25 29,-41 47,-71 91,-154 124,-104 223,-144 72,-29 143,10 219,12 62,2 51,0 95,23 120,64 210,102 304,182 103,89 150,156 226,259 15,21 10,19 23,42 9,15 15,20 25,35l214 329c9,14 12,27 20,40 28,44 65,102 105,137 21,19 69,30 85,1 6,-10 7,-32 12,-46 13,-46 45,-88 52,-134 6,-34 0,-73 7,-109 7,-35 17,-50 23,-101 15,-139 41,-274 76,-410 9,-36 8,-73 13,-106 6,-44 18,-55 21,-103l1 -390c-1,-56 -15,-94 -43,-134 -10,-14 -11,-13 -21,-31l-130 3c-24,47 -60,87 -87,138 -79,147 -119,323 -220,456 -44,3 -61,-13 -97,-26 -18,-7 -65,-30 -84,-41 -54,-32 -124,-39 -190,-61 -59,-20 -138,-28 -200,-47 -57,-16 -232,-73 -293,-79 -32,-3 -75,-7 -108,-13 -85,-13 -142,0 -226,6 -144,10 -257,75 -354,135 -106,66 -179,148 -257,243 -7,9 -27,31 -31,37 -101,149 -158,327 -165,509l-10 238c-1,12 23,65 31,85 16,34 16,58 32,95 12,29 24,63 37,87 41,76 101,143 158,208 185,213 476,396 722,521l317 174c57,33 106,57 154,96 28,22 45,24 76,49 79,66 115,84 205,170 43,41 75,88 103,139 43,76 30,115 31,217 0,123 -11,107 -67,174 -37,45 -74,93 -113,137 -53,61 -57,75 -171,75 -148,0 -243,-54 -389,-63 -138,-9 -54,-86 -233,40 -38,27 -27,22 -90,22 -150,0 -106,18 -178,-45 -29,-26 -60,-37 -87,-60 -138,-115 -208,-311 -260,-483 -8,-27 -15,-22 -22,-50 -9,-34 -2,-26 -17,-57l-61 -168c-10,-22 -9,-34 -19,-54 -46,-97 -97,-205 -151,-298 -64,-109 -145,-155 -292,-146 -44,124 -4,419 36,537 38,112 11,123 89,210 27,30 33,68 60,87 24,17 30,10 51,23 81,51 31,86 17,154 -6,35 -6,96 -7,134 -1,67 -9,70 -21,125 -31,151 -25,256 -37,385 -4,46 -14,91 7,123 18,29 46,62 80,69l186 -467c16,-31 37,-32 82,-32 239,1 167,-17 235,98 32,54 240,132 311,145 46,9 59,16 93,24l191 35c64,4 147,22 206,8 106,-24 174,4 286,-50 43,-22 137,-29 192,-29 87,0 104,40 154,71 52,-21 150,-166 195,-215 78,-86 155,-188 238,-276 17,-18 27,-34 46,-56 124,-143 110,-100 110,-303 0,-69 0,-137 0,-206 1,-229 -9,-177 -59,-399 -21,-90 -78,-175 -119,-262z"/>
   <path class="fil2" d="M16701 10500c64,-27 226,13 300,19 86,6 86,3 122,-45 26,-37 46,-68 43,-126 -97,-38 -348,-59 -459,-52 -91,5 -115,96 -271,108 -44,4 -68,16 -104,22 -41,8 -76,2 -116,15 -141,45 -234,-17 -237,146 -3,136 25,258 68,381 13,39 -6,23 24,39 22,-36 33,-86 45,-124 7,-23 15,-34 21,-60 11,-51 35,-148 83,-165 42,-15 97,13 113,40 22,37 27,86 41,127 52,154 -53,162 -62,394 -2,27 -2,63 -1,89 1,34 10,38 25,56 34,43 29,58 42,117 15,68 4,548 4,657 0,87 17,233 -27,292 -57,0 -130,-95 -164,-135 -84,-99 -187,-238 -251,-352 -44,-80 -176,-273 -237,-366 -12,-18 -17,-31 -30,-50l-177 -271c-12,-17 -16,-32 -27,-47 -34,-44 -126,-109 -133,-159 47,-61 124,-16 131,-109 20,-274 -125,-179 -184,-288 -25,-47 5,-45 -59,-57 -30,-6 -60,-18 -85,-34 -87,-55 -194,-78 -280,-138 -24,-17 -4,-8 -37,-22 -179,-74 -206,-24 -351,49 -37,19 -542,70 -624,87 -38,8 -301,24 -318,46 -7,10 -9,37 -4,55 11,46 187,135 249,164 24,11 19,6 40,19 20,11 21,9 40,18l118 60c54,29 142,75 176,124 51,74 39,87 39,195 0,239 10,1842 -6,1892 -4,13 -9,16 -16,41 -25,97 -77,195 -137,274 -84,113 -269,235 -393,319 -40,28 -113,60 -112,116 51,33 225,16 305,16 116,0 554,7 636,-9 54,-11 61,-25 135,-26 52,-1 104,4 155,0 15,-23 63,-85 64,-108 -25,-10 -54,-6 -87,-8 -148,-13 -302,-167 -374,-288 -47,-79 -80,-206 -33,-304 18,-37 9,-288 15,-357 5,-53 20,-108 23,-169 7,-118 -9,-248 22,-361 30,-112 -1,-236 38,-339 32,-83 8,-81 7,-160l22 -169c3,-55 2,-147 62,-161 72,-17 116,41 169,78 133,95 245,223 357,341 127,135 214,222 331,367l474 650c76,117 146,224 214,346 15,27 33,51 54,85 51,88 96,192 162,256 110,106 45,32 98,181 11,30 13,12 22,54 6,27 7,29 14,52 15,46 4,75 23,115 29,4 103,-7 124,-18 24,-12 53,-56 68,-78 46,-3 37,-2 66,14 28,16 102,44 136,41l24 -7c7,-23 4,-10 -15,-31 -64,-69 -122,-166 -156,-257 -21,-59 -46,-111 -52,-183 -3,-43 -17,-61 -21,-96 -28,-237 -2,-778 -5,-1051 -2,-159 -4,-310 1,-470 3,-85 23,-120 29,-199 7,-98 -15,-260 11,-345 32,-104 13,-218 29,-325l31 -438z"/>
   <path class="fil2" d="M10098 8202c-21,79 -269,132 -295,159 42,34 146,-2 202,22 -20,9 -46,4 -72,5 -35,1 -46,3 -54,35 64,22 215,-7 291,18 -23,31 -91,29 -128,34 -54,8 -103,7 -160,9l-297 42c-51,14 -99,11 -147,23 -26,6 -35,14 -63,17 -27,4 -57,2 -81,9 -25,7 -30,14 -59,19 -25,5 -52,3 -77,12 -31,11 -13,14 -62,20 -25,3 -53,1 -68,22 32,21 100,8 131,-5 48,-20 85,-7 131,-21 121,-35 717,-103 827,-104 199,-2 401,-6 603,-6 101,0 202,2 301,7 57,2 206,46 289,14l-33 -16c-43,-9 -95,-4 -136,-9 -65,-7 -99,-24 -164,-24 -103,-1 -271,-10 -356,-33 12,-18 25,-20 47,-20 43,-2 125,10 162,-2 46,-14 10,3 27,-21 -56,-18 -421,-13 -537,-30l10 -10c18,-14 52,-16 81,-17 46,-2 93,-2 140,-2 77,0 198,-6 264,7 84,16 162,12 250,17 156,9 448,44 601,78 38,8 90,3 124,16 51,20 56,13 112,21 64,8 156,45 221,58 44,9 74,10 92,39 -32,2 -56,-9 -81,-16 -26,-7 -65,-5 -93,-8 -51,-7 -110,-33 -168,-20l-19 8c-2,0 -4,2 -6,3 26,25 102,18 145,35 47,19 70,9 139,36 25,10 50,5 78,12l189 68c-63,0 -72,6 -127,-14 -38,-14 -84,-5 -131,-23 -37,-15 -84,-7 -130,-23 -23,-7 -35,-13 -64,-15l-59 2c-17,6 -8,1 -18,10 15,14 -15,4 26,14 32,7 69,0 97,13 53,24 76,12 124,30 40,15 84,17 122,33l179 49c23,7 24,12 54,19l398 139c24,10 31,8 54,19 22,12 86,37 110,45l215 93c102,47 411,197 503,261l98 56c94,55 194,116 282,181 56,42 130,81 184,124 19,15 19,18 41,32 20,13 33,21 48,34 57,52 48,79 145,157 141,114 268,246 395,376 26,27 57,55 108,57 -13,-43 -62,-76 -94,-107l-283 -254c-28,-31 -14,6 -21,-37 45,8 156,99 192,130 57,49 113,91 170,146 56,54 105,101 159,157 33,33 37,55 99,61 36,4 104,21 130,33l-11 98c91,23 107,40 153,106 84,124 1,154 82,241 17,19 14,18 27,40l261 393c17,22 47,37 68,64 19,24 34,59 52,80 46,58 147,202 179,277 20,44 -4,27 33,41 14,-61 9,-270 4,-350 -3,-54 -13,-54 -42,-84 -35,-36 -22,-256 -11,-320 5,-31 35,-59 11,-90 -34,77 -78,147 -121,221 -22,39 -8,48 -51,67 -21,-19 -34,-58 -45,-93 -7,-25 -15,-30 -21,-51l-59 -164c-34,-126 -61,-232 -61,-375 1,-215 21,-124 76,-220 1,-37 -10,-33 -35,-61 -16,-18 -28,-32 -45,-50 -149,-156 -307,-322 -465,-469l-228 -198c-113,-90 4,-45 -219,-199 -26,-17 -29,-22 -55,-40l-226 -150c-102,-73 -487,-284 -591,-335 -17,-8 -40,-19 -64,-32 -106,-55 -482,-223 -584,-254l-851 -270c-32,-12 -48,-10 -82,-17 -33,-8 -24,-17 -66,-23l-220 -56c-34,-13 -51,-5 -71,-24 65,-2 96,-4 147,12 50,15 92,8 137,18 53,10 5,18 124,26 59,3 70,32 127,15 -25,-33 -25,-14 -69,-21 -35,-5 -21,-16 -64,-25 -26,-6 -56,-3 -79,-10 -25,-9 -28,-18 -68,-22 -121,-12 -85,-23 -149,-28 -135,-11 -96,-19 -148,-27 -105,-16 -208,-25 -318,-36 -61,-6 -252,-45 -317,-17 13,32 46,5 88,37 -2,1 -5,2 -6,3 -2,0 -4,1 -6,2l-34 5c-14,0 -31,-1 -45,-1 -202,0 -688,-7 -843,8 -57,5 -112,16 -171,17 -73,2 -291,8 -335,42z"/>
   <path class="fil0" d="M4818 10725l-4 11 -7 7 -7 8 -8 15 -5 9 -9 6 -8 7 -9 13 -6 8 -7 8 -6 8 -9 14 -8 13 -7 8 -6 6 -369 508c-16,29 -29,48 -52,67 -114,154 -72,113 -144,246l-93 192c-16,38 -1,56 -41,59 0,-84 8,-160 9,-248 1,-86 -2,-440 14,-501 40,-155 11,-598 76,-692 12,-17 53,-48 71,-53l262 -2c66,2 62,-3 110,20 35,-2 43,-5 72,10 9,4 38,20 45,28 18,20 37,77 54,102l6 8 6 15 7 15 8 7c33,14 24,10 56,3l16 28 1 33 -8 14zm415 1428c76,-40 127,18 137,-81 11,-108 -32,-86 -32,-184 -1,-96 -29,-103 -61,-169 -48,-101 -121,-183 -162,-296 -7,-17 -7,-31 -13,-46 -6,-16 -11,-17 -17,-35 -11,-32 -7,-52 -21,-88 -22,-56 -46,-249 -57,-282 -13,-38 -10,-53 -17,-93l-51 -175c-29,-108 -45,-108 -68,-153l-61 -5c-30,-40 -47,-130 -139,-164 -131,-48 -345,-38 -491,-35 -58,0 -82,33 -115,58 -38,29 -54,46 -68,108l-25 150c-14,87 -7,250 -9,345 -2,80 -28,126 -29,314 -1,214 -22,422 -27,632 -4,186 -8,295 1,478 3,74 48,220 55,441l36 205c5,22 14,37 19,61 5,26 4,56 11,78l51 192c12,74 57,162 101,220 37,49 55,39 132,39 54,0 108,0 162,0 182,1 318,-101 415,-241 123,-177 98,-149 173,-319 33,-73 97,-314 102,-382l45 -286c15,-45 9,-96 17,-144 23,-137 -1,-88 6,-143z"/>
   <path class="fil2" d="M11167 13100c0,-151 12,-304 9,-462 -3,-210 7,-248 39,-433l50 -185c13,-59 30,-137 68,-166 13,-10 60,-28 80,-36 17,-7 31,-8 46,-13 48,-17 158,-85 146,-133 -2,-1 -5,-2 -6,-2l-13 -3c-2,-1 -4,-1 -7,-1 -49,-7 -104,-2 -154,-2 -199,0 -183,34 -382,34 -72,0 -140,32 -190,22 -39,-7 -36,-24 -82,-26 -34,-2 -69,-1 -103,-3 -68,-4 -88,-34 -183,-31 -106,4 -132,-22 -127,76 45,34 120,50 168,75 93,48 -37,349 -56,407l-66 242c-6,23 -12,26 -18,42 -8,21 -6,30 -12,49 -8,24 -10,14 -19,38 -6,19 -5,33 -13,54 -9,21 -10,13 -18,40l-51 132c-8,19 -6,27 -13,48 -6,21 -10,19 -18,38 -7,17 -7,25 -16,44 -64,128 -107,283 -197,89 -13,-28 -24,-59 -38,-87 -43,-87 -65,-167 -107,-253 -11,-23 -27,-61 -38,-87l-36 -82c-18,-45 -23,-37 -32,-92 -6,-34 -19,-55 -25,-91 -13,-85 1,-140 -24,-219 -59,-184 19,-164 -120,-366 -51,-75 -45,-94 -138,-94 -50,0 -70,-9 -96,20 -12,14 -37,55 -49,61 -39,22 -55,-7 -80,-21 -33,-17 -41,-22 -68,-42 -46,-32 -85,-55 -134,-86 -29,-18 -98,-60 -133,-65 -15,-1 -9,-1 -17,3 -14,56 7,89 -28,132 -31,37 -62,30 -123,30l-213 -1c-27,1 -53,2 -81,3 -39,2 -119,1 -16,60 72,42 232,23 318,23 48,0 60,7 82,33 33,37 68,96 81,145 17,67 6,1362 6,1539 0,82 -97,186 -158,225 -82,52 -141,8 -204,82 -17,20 -30,30 -40,53 18,34 33,46 85,47 39,1 79,0 118,0 124,0 664,16 714,-9 -5,-34 2,-16 -24,-31 -7,-4 -29,-13 -35,-16 -65,-27 -125,-85 -165,-142 -43,-63 -113,-200 -118,-283 -28,-392 -21,-704 -19,-1087 0,-92 -19,-164 30,-163 67,3 117,225 138,268 22,45 48,95 69,144 8,17 7,27 14,45l126 307c8,14 9,23 14,37l77 188c4,12 6,28 10,41 20,54 55,82 95,116 54,-32 82,-128 122,-98 26,43 58,164 58,232 -2,144 -20,420 48,519 68,-30 117,-96 155,-159 38,-63 73,-144 98,-217 11,-31 38,-80 50,-113 12,-34 26,-82 41,-112l97 -292c9,-25 6,-44 14,-69 7,-26 13,-27 20,-60 18,-91 68,-212 88,-294 5,-23 31,-99 41,-120 42,-87 74,-250 167,-293 35,14 85,103 101,146 26,74 35,130 35,219 0,118 -2,113 -28,217 -25,100 61,102 82,142 9,91 -11,93 -24,154 -25,121 -30,179 -9,303 8,49 5,107 14,155 16,94 -5,70 -62,100 -36,19 -73,38 -119,51 -34,9 -91,37 -124,51 -46,20 -74,32 -96,76l17 15c1,1 17,11 18,12 13,8 17,13 33,19 72,28 580,-30 706,-30 159,-1 309,37 309,-67 0,-41 16,-81 -41,-72 -41,7 -178,45 -206,17 -28,-29 -1,-166 -15,-212 -22,-22 4,-1 -25,-13 -18,-7 -9,3 -25,-11 -29,-27 -20,-362 -20,-415z"/>
   <path class="fil2" d="M12137 12660c-18,-71 9,-110 18,-166 9,-58 -6,-129 12,-181l55 -223 46 -93c36,-70 91,-133 144,-188 40,-42 47,-55 130,-59 225,-10 270,-33 421,143 63,74 96,147 130,254 8,26 7,47 16,71l47 141c3,29 -1,67 4,94l50 139c23,74 12,103 7,171 -4,64 57,69 42,135 -16,69 -139,349 -162,405l-126 248c-63,107 -38,84 -297,84 -136,0 -252,20 -325,-47 -29,-27 -66,-62 -77,-113 -10,-43 -18,-38 -25,-70l-34 -150c-5,-36 -15,-45 -22,-75 -28,-124 -22,-313 -33,-447 -4,-39 -15,-47 -21,-73zm1663 316c8,-92 8,-193 5,-287 -4,-120 -24,-156 -46,-247l-78 -217c-32,-77 -71,-127 -117,-177l-211 -229c-35,-41 -145,-87 -224,-144 -28,-20 -23,-6 -57,-15 -22,-6 -75,-41 -97,-51 -134,-54 -292,-37 -369,-72 -55,-25 -60,-9 -106,9l-306 134c-68,36 -126,67 -191,103 -95,53 -242,194 -298,289l-109 258c-26,52 -36,119 -41,179 -5,63 -27,57 -31,113 -6,99 -2,335 -2,442 0,190 -8,111 77,215 87,107 82,205 102,266 10,29 52,108 95,125l167 54c21,6 40,6 60,12 23,7 30,13 54,19l419 98c24,9 25,14 54,18 122,16 224,51 307,61 68,8 64,11 112,-23 27,-20 64,-41 91,-56 24,-14 25,-10 47,-26 47,-35 126,-73 138,-82l172 -122c133,-104 240,-265 329,-407 46,-74 47,-157 54,-240z"/>
   <path class="fil2" d="M12118 14915c30,60 99,106 157,150 19,14 39,23 58,37 259,186 201,219 164,585 -26,249 -7,175 -7,382 1,269 0,539 0,808 0,70 12,137 -27,178 -17,19 -85,65 -123,77 -49,16 -176,47 -207,93 -11,15 -20,63 0,77 11,7 61,3 90,13 31,12 30,22 76,24 69,5 122,-5 185,16 96,33 446,14 594,17 139,2 78,-15 164,-36 72,-17 91,-19 175,-26 41,-4 49,-12 82,-20 83,-19 410,4 485,-16 61,-16 102,-30 156,-49 98,-34 16,-58 26,-318 1,-34 1,-71 4,-103 2,-37 13,-39 22,-70 11,-37 1,-63 4,-100 3,-30 15,-37 28,-65 17,-39 17,-126 2,-170l-28 -4c-22,38 -39,243 -45,264 -18,74 -197,286 -258,344 -36,35 -129,127 -179,125 -14,-83 23,-167 58,-216l102 -161 -19 -22c-49,22 -169,160 -212,208 -36,38 -68,71 -104,109 -45,48 -45,70 -139,76 -163,11 -238,-39 -297,-133 -56,-92 -61,-136 -69,-245 -5,-61 14,-73 -2,-87 -43,-18 -34,40 -91,10 -13,-30 -13,-397 -2,-433 23,-23 77,-34 117,-39 47,-6 79,-20 123,-25 80,-11 175,16 207,89 63,143 63,92 105,267 3,15 11,143 61,158 21,-44 -7,-100 -16,-144 -5,-25 -6,-50 -15,-71 -32,-73 -62,-306 -51,-381 38,-18 78,-7 119,-15 33,-98 45,-262 34,-380 -9,-93 -1,-105 -23,-190 -30,-117 -100,-86 -115,-62 -17,32 6,90 2,136l-38 255c-18,98 15,73 -79,134 -136,89 -12,32 -160,60 -111,21 -120,38 -251,34 -45,-2 -106,5 -70,-38 69,-81 69,-95 106,-190 27,-70 63,-277 100,-332 19,-27 50,-51 74,-73 27,-26 45,-43 69,-68 -2,-36 -15,-41 -22,-83 -4,-22 -5,-24 -10,-44 -7,-34 0,-31 5,-36 30,-22 344,-8 409,-9 105,-1 81,13 123,83 33,57 49,126 83,123 28,-3 24,-65 74,-73 35,58 -1,199 20,272 37,0 31,2 39,-37 8,-37 9,-27 21,-52 32,-68 1,-37 58,-118 8,-12 8,-13 14,-23 35,-55 103,-78 112,-101 9,-183 17,-482 -44,-626l-64 -2c-46,51 -79,120 -114,178 -82,132 -67,118 -168,117 -264,-1 -923,14 -1136,-22 -46,-8 -94,-3 -139,-7 -88,-8 -325,-30 -383,16z"/>
   <path class="fil2" d="M6226 11647c9,17 68,57 85,72 51,42 39,38 91,65 80,42 212,156 223,244 24,202 -35,213 -52,254 -21,50 -9,1309 -9,1362 0,60 -13,68 -60,91 -34,17 -71,25 -108,39 -47,18 -136,35 -170,113 75,72 255,62 352,84 122,29 175,11 284,7 192,-8 246,24 474,-23 28,-5 36,-14 65,-22 193,-56 317,1 508,-36 139,-28 191,-3 295,-64 4,-52 -6,-58 -19,-94 -40,-110 22,-311 43,-412 8,-35 4,-69 12,-105 11,-42 38,-153 24,-186 -39,-14 -44,-5 -69,13 -5,52 9,185 -30,268 -63,137 -145,227 -255,332 -75,71 -104,115 -161,101 -14,-72 3,-101 52,-180 19,-31 97,-116 64,-150 -23,-23 -34,6 -102,74 -34,34 -65,66 -99,100l-146 147c-30,25 -142,19 -185,15 -45,-4 -99,-45 -121,-79l-103 -192c-16,-55 3,-132 -8,-182 -57,-11 -32,14 -74,8 -25,-47 -12,-152 -12,-218 0,-70 -10,-162 13,-216 44,-12 90,-5 140,-15 127,-27 171,-38 234,22l69 78c74,118 54,255 136,451l39 -19c0,-1 1,-4 1,-6 -1,-1 -1,-4 -1,-6 0,0 -6,-22 -6,-23 -10,-43 -5,-109 -16,-145 -31,-108 -16,-71 -67,-147 -19,-29 -9,-58 -11,-99 -3,-45 -67,-160 -12,-217 48,-50 46,-12 85,2 51,-46 73,-304 56,-398 -5,-27 -12,-42 -14,-70 -5,-76 -10,-96 -35,-155l-84 5c-34,45 -16,148 -16,216 0,450 -227,307 -354,362 -53,23 -141,22 -199,5 -1,-47 22,-52 42,-83 63,-98 67,-184 88,-271 22,-87 0,-127 58,-185 31,-30 91,-98 123,-118 1,-64 -35,-106 -19,-167 59,-15 295,-6 376,-6 122,0 111,-7 136,55 17,43 41,90 61,130 71,-4 74,-65 118,-37 31,28 7,186 19,239 32,-10 14,14 48,-79 7,-18 7,-30 13,-47 50,-140 109,-114 133,-153 12,-22 10,-589 -1,-604 -15,-18 -13,-13 -47,-19 -23,-3 -24,-5 -49,-2l-165 289c-85,10 -181,0 -255,-16 -113,-26 -708,-12 -848,-12 -98,0 -532,-16 -578,15z"/>
   <path class="fil2" d="M9891 14810c-48,-25 -131,-124 -190,-105 -17,38 38,64 13,153 -115,37 -289,-59 -188,104 35,55 98,64 164,101 110,62 120,-66 326,314 13,25 34,58 48,85l134 255c140,240 156,247 289,556l86 236c20,61 4,164 -29,215 -14,20 -11,12 -26,40 -57,109 -28,7 -60,132 -27,104 -124,130 -214,173 -35,17 -71,8 -115,21 -123,37 -223,137 -163,183 32,20 309,7 372,7 153,1 251,52 326,55 14,-39 11,-53 62,-55 124,-5 166,-20 310,-28 40,-2 63,-13 102,-15 36,-2 75,-2 111,-1 55,0 108,3 132,37 11,15 2,34 73,33l35 -5c0,-1 43,-28 -6,-85 -26,-32 -27,-29 -45,-73 -24,-59 -140,-116 -202,-142 -18,-8 -140,-36 -158,-70 -15,-29 -6,-501 -6,-561 -2,-150 -21,-196 28,-318 10,-26 10,-15 21,-38l324 -645c40,-80 47,-83 83,-145 61,-102 103,-108 199,-147 39,-16 150,-99 172,-162 -76,-67 -624,-55 -731,-55 -62,0 -74,18 -107,44 -27,20 -58,42 -73,82 -8,21 -6,43 -15,66 0,1 -55,78 59,50 27,-7 33,-15 57,-22 37,-12 29,-8 58,-23 24,-11 39,-14 55,1 17,18 39,161 35,187l-193 390c-23,54 -31,118 -63,159 -9,12 -76,92 -88,37l0 -29c8,-90 -54,-13 -98,-16l-50 -102c-14,-29 -36,-67 -49,-99l-48 -98c-28,-54 -65,-164 -67,-234 -2,-50 -2,-97 -1,-147 1,-66 20,-60 48,-98 65,-91 43,-114 -33,-114 -245,2 -70,-64 -328,-7 -129,29 -268,-20 -376,-77z"/>
   <path class="fil2" d="M8359 16328c-55,-80 33,-177 44,-246 18,-110 126,-386 224,-154 44,103 100,200 102,340 1,88 -70,62 -155,62 -66,0 -151,5 -215,-2zm803 -339c-28,-30 -57,-55 -83,-94 -74,-111 -100,-295 -45,-432l55 -124c-27,-15 -56,-28 -87,-44 -32,-16 -51,-35 -79,-52 -40,-23 -95,-93 -111,-147 -11,-37 -5,-88 -7,-129 -2,-39 -19,-60 -25,-97 -31,-177 -227,-352 -205,-201 12,80 36,142 15,233 -30,129 -81,258 -147,367 -22,37 -17,67 -16,117 0,89 16,78 25,106 16,49 -60,181 -80,236 -11,30 -13,21 -21,44 -8,20 -5,32 -14,54 -9,20 -11,8 -18,39l-57 198c-26,140 -60,302 -191,325l-224 35c-41,8 -24,45 -15,86 7,28 24,65 34,92 45,2 70,4 97,-19 73,-64 62,-44 66,134 1,62 -12,86 -25,135 -24,88 -67,151 -152,179 -58,20 -75,22 -145,23 -113,0 -137,-10 -258,73 -39,26 -66,46 -45,107 38,10 118,10 137,-22 17,-28 5,-35 49,-40 86,-10 94,17 163,87 57,57 33,46 108,29 25,-5 53,-3 78,-9 25,-6 30,-14 62,-19 51,-8 106,-4 156,-11 163,-23 147,1 248,-90 -2,-37 -39,-100 -41,-101 -70,-25 -86,-25 -143,-69 -57,-45 -97,-22 -72,-123l106 -320c49,-4 44,14 91,23 34,6 60,7 95,15 66,15 136,5 195,18 130,29 228,69 284,151 59,88 9,100 -26,195l-38 118c-25,86 -110,257 -96,325 59,26 115,10 163,-17 54,-32 44,-62 129,-62 108,0 65,47 111,88 25,23 37,8 66,2 45,-9 40,1 77,-20 44,-23 88,-55 152,-36 33,10 25,17 72,24 30,4 241,99 370,-14 -92,-115 -140,-85 -179,-230 -17,-63 -82,-145 -111,-194 -17,-29 -24,-34 -41,-64 -133,-227 -56,-231 -249,-368 -129,-92 -116,-72 -114,-188 1,-47 3,-38 22,-66 21,-31 17,-110 4,-151 -12,-38 -42,-75 -70,-105z"/>
   <path class="fil2" d="M6595 14771c-32,-32 -187,-11 -227,2 -61,18 -160,14 -205,38 -71,38 -52,79 -167,78l-610 -2c-37,-7 -41,-27 -75,-43 -53,-26 -111,-54 -190,-53 -64,0 -65,0 -49,41 44,112 102,124 243,191 22,10 11,9 39,21l76 40c25,14 50,37 69,56 26,26 33,35 32,84l5 720c1,70 16,420 39,450 19,-2 1,6 19,-13 37,-38 32,-41 31,-91 -1,-96 -9,-446 6,-490 47,-15 62,28 65,71l0 676c-6,47 -34,45 -56,78 -18,28 -12,71 -24,108 -23,66 -100,218 -153,258 -34,27 -195,79 -247,91 -29,6 -26,11 -46,19 -58,23 -171,27 -122,129 22,22 857,9 991,-7 46,-5 97,-23 147,-25 54,-2 115,-1 169,0l838 7c78,1 84,0 113,-53 38,-68 77,-157 66,-256 -14,-10 -39,-16 -57,-23 -21,-128 8,-566 -15,-601 -41,13 -62,39 -86,67 -22,25 -38,67 -57,99l-39 122c-6,24 -5,43 -12,68 -5,20 -12,38 -17,56l-37 124c-11,33 -38,77 -54,103 -36,58 -93,111 -158,150 -54,32 -54,27 -132,27 -49,0 -103,4 -148,-6l-112 -47c-84,-44 -119,-64 -192,-124 -43,-35 -83,-77 -112,-124 -23,-38 -55,-62 -85,-142 -62,-170 -42,-251 -29,-422 4,-58 16,-83 20,-139 3,-51 4,-102 6,-155 1,-49 18,-82 29,-125 10,-44 8,-95 19,-132 19,-66 37,-38 40,-117 5,-151 45,-137 56,-262 14,-145 2,-137 117,-196 151,-77 230,-111 279,-271 17,-56 -1,-55 -1,-55z"/>
   <path class="fil0" d="M12137 12660c6,26 17,34 21,73 11,134 5,323 33,447 7,30 17,39 22,75l34 150c7,32 15,27 25,70 11,51 48,86 77,113 73,67 189,47 325,47 259,0 234,23 297,-84l126 -248c23,-56 146,-336 162,-405 15,-66 -46,-71 -42,-135 5,-68 16,-97 -7,-171l-50 -139c-5,-27 -1,-65 -4,-94l-47 -141c-9,-24 -8,-45 -16,-71 -34,-107 -67,-180 -130,-254 -151,-176 -196,-153 -421,-143 -83,4 -90,17 -130,59 -53,55 -108,118 -144,188l-46 93 -55 223c-18,52 -3,123 -12,181 -9,56 -36,95 -18,166z"/>
   <path class="fil2" d="M16767 11539c-6,121 -23,97 -27,165 -12,238 -33,246 -11,524 9,118 0,247 -8,364 -13,198 -5,527 15,726 10,107 34,205 80,292 54,105 86,150 153,221 30,32 162,175 185,188 21,-16 32,-48 47,-73 53,-89 80,-8 36,-141 -35,-105 -52,-202 -99,-326 -8,-20 -10,-15 -18,-34 -6,-15 -7,-31 -13,-46 -15,-38 -58,-124 -46,-158 23,10 42,49 52,71 11,26 5,9 16,28 44,73 128,291 162,368l51 124c8,22 148,360 163,366 45,-1 49,-32 99,-38 23,-3 47,-3 71,-6 76,-8 89,39 52,-154 -10,-54 -7,-114 -18,-160 -8,-29 -15,-43 -19,-71 -16,-124 -25,-88 -30,-145 0,-6 -3,-36 -3,-39 -15,-45 8,-16 -28,-27 -7,24 -8,42 -7,72 1,50 1,35 25,58 -10,185 16,133 27,174 -16,12 0,8 -30,8 -3,-33 -5,-58 -8,-87 -2,-22 1,-30 -5,-47 -8,-26 -9,-9 -15,-35 -5,-21 -8,-64 -10,-87 -4,-46 -13,-41 -22,-81 -6,-26 -6,-58 -13,-82 -8,-29 -18,-37 -21,-79l-149 -547c-8,-29 -20,-32 -28,-72l-55 -153c-14,-58 -161,-433 -196,-500 -13,-25 -25,-48 -34,-70 -66,-148 -168,-311 -261,-438 -17,-22 -27,-34 -41,-62 -3,2 -19,9 -19,9z"/>
   <path class="fil0" d="M16204 15014c21,8 18,14 22,41l34 117c24,69 78,207 85,275 4,47 -5,83 -21,121 -41,94 26,200 -41,253 -99,76 -77,84 -75,-83 4,-250 -3,-424 -12,-683 -1,-19 3,-30 8,-41zm247 460c0,-80 -119,-417 -162,-528 -39,-103 -8,-108 -186,-161 -32,-9 -27,-16 -62,-23 -43,-9 -39,-10 -69,-21 -24,-9 -51,-7 -77,-12 -101,-17 -50,-28 -231,-25 -94,1 -51,-30 -146,-31 -56,0 -124,-15 -122,43l69 275c16,42 20,95 31,142 27,107 2,214 -35,292 -43,90 -96,170 -120,223 -53,114 -69,133 -62,289 6,109 68,145 160,189 97,45 192,38 314,37 126,0 319,-60 422,-134l220 -170c53,-49 3,-117 23,-244 9,-64 33,-72 33,-141z"/>
   <path class="fil2" d="M5077 10184l4 10 8 7 9 5 8 7 6 9 8 6 12 7c40,22 25,30 80,30 146,-148 347,-366 497,-493 37,-31 70,-59 107,-92 19,-17 33,-28 50,-44l511 -394c18,-15 33,-26 56,-39l363 -233 628 -319c24,-12 45,-29 103,-51 28,-11 36,-20 66,-28 46,-13 34,-16 75,-29l719 -282 540 -149c44,-5 50,-14 83,-22 25,-6 54,-4 82,-12 35,-10 33,-18 78,-21 80,-6 107,-21 185,-25 52,-28 240,-31 305,-49 187,-50 444,-16 622,-90 72,-29 215,-63 244,-111 -60,-53 -483,6 -607,13 -57,3 -65,9 -114,18 -39,8 -80,8 -121,12 -34,4 -75,16 -109,23 -40,7 -68,5 -108,16l-223 44c-48,5 -60,20 -104,27 -71,10 -149,32 -212,52l-405 118c-115,34 -280,86 -390,138 -64,30 -124,46 -189,76 -28,14 -61,29 -92,41l-93 39c-24,11 -63,32 -87,45l-312 151c-31,13 -77,50 -105,56 -29,6 -15,2 -25,-3 41,-43 173,-106 226,-142 196,-129 420,-231 640,-329 108,-48 211,-84 325,-124 23,-8 23,-14 50,-22l284 -93c44,-12 39,-27 112,-42 -44,-41 -21,-24 25,-41 27,-9 12,-10 38,-20l131 -37c41,-5 130,-48 175,-55 58,-9 50,-13 92,-24 35,-10 68,-3 102,-17 29,-12 256,-44 297,-48 35,-3 59,-13 90,-19 38,-9 69,-6 108,-12 32,-4 57,-14 91,-20 37,-5 72,-3 109,-7 42,-4 48,-19 93,-26 34,-5 71,-4 96,-17 -46,-22 -163,6 -219,9 -185,9 -122,16 -219,27 -34,4 -73,4 -107,12l-206 43c-36,9 -80,4 -113,13 -32,9 -12,11 -40,18 -13,3 -42,4 -56,5l-399 93c-94,32 -191,53 -286,88 -60,22 -121,36 -178,63l-177 74c-74,28 -139,62 -215,85l-266 103c-18,7 -33,8 -51,16 -20,8 -16,10 -39,19 -87,32 -169,77 -253,114 -208,91 -408,207 -606,318 -33,19 -47,32 -77,49 -75,42 -152,99 -226,142l-361 256c-87,78 -187,144 -274,218 -45,38 -87,78 -132,118l-127 115c-130,119 -248,246 -375,368l-215 219c-19,20 -19,10 -20,46z"/>
   <path class="fil2" d="M17029 17271c25,-1 14,-3 36,-36l101 -157c44,-60 127,-149 36,-225 -84,-69 -124,-75 -183,-148 -27,-33 -44,-62 -64,-104l-27 -106c0,-31 -1,-16 8,-29 29,-27 199,91 234,-214 3,-24 11,-121 -9,-137 -43,-37 -121,141 -158,150 -26,-53 25,-326 -12,-354 -13,9 -63,86 -77,107 -29,43 -52,64 -85,98 -75,76 -50,85 -78,107 -15,13 -45,20 -63,32l-56 33c-19,48 17,69 -1,123 -57,14 -168,-45 -201,18l144 251c158,276 184,255 26,352 7,30 79,97 106,119 39,33 50,8 92,25 38,16 19,44 35,75 28,-5 16,-7 39,-19 62,-30 63,-37 117,-40 15,31 28,44 40,79z"/>
   <path class="fil2" d="M16490 10261l26 -8 6 -6c6,-44 -77,-119 -128,-176 -99,-111 -202,-206 -306,-311 -110,-113 -198,-189 -318,-292 -30,-26 -49,-45 -81,-73 -82,-70 -448,-356 -514,-397l-322 -215 -1052 -549c-13,-6 -17,-6 -27,-9 -28,-11 -10,-4 -25,-13 -23,-13 -27,-24 -53,-5 15,27 -7,5 24,19l744 432c147,82 414,260 557,355 61,41 118,80 177,124l676 535c96,93 205,171 321,290l295 299z"/>
   <path class="fil2" d="M16962 14651c19,-66 11,-228 6,-303 -4,-52 -4,-108 -5,-160 0,-22 -2,-61 1,-81 4,-37 17,-27 9,-52l-16 -6 -23 -5c-34,-2 -67,-4 -101,-9 -39,-5 -47,-19 -88,-16 -12,57 9,80 7,132 -24,7 -29,4 -51,8 -32,8 -11,7 -37,20 -41,-25 -19,-20 -59,-93 -6,-13 -10,-27 -14,-39 -35,4 -29,13 -62,20 -65,13 -158,-7 -206,1 -24,35 -21,43 -52,70 -77,4 -55,-27 -92,-59 -20,26 -20,150 -8,181 18,27 -4,5 28,18l137 47c22,7 41,5 62,13l162 58c12,5 32,14 49,23 30,14 63,36 91,56 65,49 47,11 116,31 26,7 60,50 78,68l68 77z"/>
   <path class="fil0" d="M8359 16328c64,7 149,2 215,2 85,0 156,26 155,-62 -2,-140 -58,-237 -102,-340 -98,-232 -206,44 -224,154 -11,69 -99,166 -44,246z"/>
   <path class="fil2" d="M4392 10915c-1,2 -2,3 -2,6 -1,3 -2,4 -3,5 -18,49 -22,61 -28,119 -5,51 -86,356 -86,366 2,37 -3,23 18,30 23,-19 36,-38 52,-67l369 -508 6 -6 7 -8 8 -13 9 -14 6 -8 7 -8 6 -8 9 -13 8 -7 9 -6 5 -9 8 -15 7 -8 7 -7 4 -11 8 -14 -1 -33 -8 -23c-38,2 -36,7 -64,-8l-8 -7 -7 -15 -6 -15 -6 -8c-32,10 -81,75 -99,102l-127 173c-45,53 -85,144 -126,157 -8,-51 12,-66 18,-119z"/>
   <path class="fil2" d="M10878 7928c33,38 138,32 187,36 70,5 150,4 219,11 62,6 127,22 192,24 74,3 149,3 211,19l488 69c55,3 43,19 140,27 59,5 83,41 147,20 -24,-36 -46,-14 -88,-23 -30,-6 -24,-25 -82,-29 -80,-5 -35,-9 -85,-25 -33,-10 -58,-4 -98,-19 -41,-15 -52,-11 -96,-17 -37,-6 -48,-19 -91,-25 -173,-21 -433,-79 -600,-86l-397 1c-33,2 -35,6 -47,17z"/>
   <path class="fil2" d="M16196 15055c9,259 16,433 12,683 -2,167 -24,159 75,83 67,-53 0,-159 41,-253 16,-38 25,-74 21,-121 -7,-68 -61,-206 -85,-275l-34 -117c-4,-27 -1,-33 -22,-41 -5,11 -9,22 -8,41z"/>
   <path class="fil1" d="M4392 10915c-6,53 -26,68 -18,119 41,-13 81,-104 126,-157l127 -173c18,-27 67,-92 99,-102l6 8 6 15 7 15 8 7c28,15 26,10 64,8l8 23 1 33 -8 14 -4 11 -7 7 -7 8 -8 15 -5 9 -9 6 -8 7 -9 13 -6 8 -7 8 -6 8 -9 14 -8 13 -7 8 -6 6 6 -6 7 -8 8 -13 9 -14 6 -8 7 -8 6 -8 9 -13 8 -7 9 -6 5 -9 8 -15 7 -8 7 -7 4 -11 8 -14 -1 -33 -16 -28c-32,7 -23,11 -56,-3l-8 -7 -7 -15 -6 -15 -6 -8c-17,-25 -36,-82 -54,-102 -7,-8 -36,-24 -45,-28 -29,-15 -37,-12 -72,-10 -9,34 -36,73 -48,107 -13,39 -25,79 -39,116l-42 111c-7,19 -32,107 -34,119z"/>
   <path class="fil2" d="M16767 11271l-3 72 25 31c11,20 8,19 21,37 76,106 295,542 352,670 6,15 5,22 13,38 42,87 55,133 85,202l31 86c34,65 15,42 33,78 22,45 12,51 21,66 13,20 -6,5 22,17 16,-48 1,-61 -14,-98l-228 -602c-48,-99 -78,-179 -132,-280l-204 -332c-21,9 -5,-4 -22,15z"/>
   <path class="fil2" d="M11695 7632c21,35 16,11 63,29 34,12 18,15 70,26l282 84c18,3 132,33 145,38l7 -15c10,-13 -4,-7 17,-13 21,-6 30,4 41,8 34,12 61,9 96,16l173 37c30,9 54,12 86,16l174 41c40,15 54,20 92,9 -8,-25 14,-12 -23,-25 -12,-4 -29,-2 -44,-6 -36,-10 -13,-16 -74,-26l-529 -139 -411 -65c-37,-4 -137,-36 -165,-15z"/>
   <path class="fil2" d="M8875 7420c29,-1 62,-17 83,-28 -40,1 -59,10 -83,28 -31,0 -42,5 -65,15 -30,13 -40,10 -71,19l-249 88c-51,21 -75,22 -104,42l-14 11c-17,-3 21,-11 -12,-2 -13,4 -13,6 -17,9 -30,-8 -10,-3 -15,7 -26,-6 -23,-1 -32,14 21,0 9,3 22,-4 16,-8 3,0 10,-10 27,3 14,4 15,-7 26,0 16,5 29,-7l305 -72c37,-11 76,-9 111,-23 31,-13 9,-12 43,-17 20,-3 45,1 66,-1 35,-3 59,-20 98,-25 47,-7 61,1 109,-15 43,-15 67,-13 116,-17 50,-5 69,-23 97,-27 29,-4 89,0 124,-2 50,-3 69,-15 104,-21l359 -29c59,-2 194,-4 237,-19 -20,-15 -51,-16 -75,-17 -66,-2 -210,-2 -264,9 -81,17 -73,12 -162,17l-319 38c-32,6 -47,16 -71,19 -48,5 -78,-8 -123,15 -56,28 -39,9 -119,17 -37,3 -39,13 -67,20 -31,8 -68,4 -101,3 19,-34 -6,0 15,-17 0,0 19,-11 20,-11z"/>
   <path class="fil2" d="M16216 11988c17,-26 0,-22 -18,-62 -32,-74 -139,-262 -181,-332 -11,-18 -30,-43 -41,-62l-354 -521c-10,-16 1,-14 -19,-22 -38,70 71,165 128,252 54,81 119,160 172,240l120 190c11,20 25,32 43,59 12,20 7,13 17,34l35 68c26,46 43,87 75,130 15,19 4,13 23,26z"/>
   <path class="fil2" d="M9027 8282c37,-5 33,-11 62,-18 23,-6 46,-6 71,-9 47,-5 74,-21 127,-26 58,-5 81,-10 134,-22 49,-10 98,-7 148,-16 90,-25 105,-8 202,-38 26,-8 52,-8 82,-9 57,-3 95,-26 139,-30 48,-5 108,1 147,-17 -71,-36 -197,5 -228,9 -24,4 -62,2 -88,2l-439 64c-18,4 -38,13 -62,18 -28,5 -56,4 -82,9 -29,5 -34,15 -57,21 -27,6 -55,4 -77,12 -44,18 -3,16 -68,22 -26,2 -44,9 -62,19l51 9z"/>
   <path class="fil2" d="M3468 18046c11,-2 8,-4 8,7 27,11 41,6 71,11 18,4 34,11 54,18 34,3 47,5 74,-5 -9,-27 4,-9 -20,-28l-65 -60c-30,-29 -57,-53 -87,-82 -43,-42 -138,-154 -166,-161 -7,15 -11,22 -2,43l113 224c12,20 11,10 20,33z"/>
   <path class="fil2" d="M8079 8545c23,-28 25,-21 51,-33l100 -55c28,-9 44,4 28,-31l-117 46c-22,12 -34,10 -58,22 -28,14 -31,13 -64,24 -78,29 -546,243 -613,291l-53 37c23,12 23,11 44,-1 2,-1 7,-5 9,-7l486 -218c53,-24 134,-57 187,-75z"/>
   <path class="fil2" d="M16019 10348l46 -3c11,-23 1,-19 -22,-40l-267 -255c-130,-123 -129,-117 -239,-209l-51 -45c-26,-20 -7,-15 -35,-17 7,28 -2,6 13,24l276 253c32,32 252,249 279,292z"/>
   <path class="fil2" d="M16825 10656c39,19 67,70 91,105 28,40 56,66 84,107l80 112c25,43 47,57 61,86 11,21 -5,16 23,28 7,-19 9,-9 -1,-28 -10,-19 2,4 -10,-12 -8,-11 -5,-6 -11,-19 -14,-33 -16,-34 -32,-64 -10,-17 -25,-36 -38,-57l-117 -169c-51,-57 -73,-101 -84,-114l-39 -1 -7 26z"/>
   <path class="fil2" d="M17132 14077l-88 -9 -51 1c0,33 35,93 68,95 40,2 70,-53 71,-87z"/>
   <path class="fil2" d="M10962 8436c44,30 188,19 246,9 -58,-34 -171,-13 -246,-9z"/>
   <path class="fil2" d="M11688 8520c6,9 -5,12 24,19 13,3 89,6 113,-4 -9,-13 13,-12 -25,-21 -4,-1 -98,-6 -112,6z"/>
   <path class="fil2" d="M11349 8550c8,7 2,6 15,12 15,7 2,3 19,5l127 -3c-20,-24 -12,-20 -78,-22 -21,-1 -70,-1 -83,8z"/>
   <path class="fil2" d="M11729 8605c13,15 1,12 23,20 10,4 72,7 97,-1 -10,-19 6,-23 -56,-24 -22,0 -49,-2 -64,5z"/>
   <path class="fil2" d="M11568 8577c11,14 1,12 22,19l77 2c29,-8 3,0 17,-9 -5,-6 12,-14 -53,-17 -21,-1 -49,-3 -63,5z"/>
   <path class="fil2" d="M8912 8678c31,12 76,11 104,-8 -6,-7 14,-17 -52,-13 -34,1 -39,0 -52,21z"/>
   <path class="fil2" d="M17393 12654c15,-42 14,-71 -20,-85 -13,32 -12,69 20,85z"/>
   <path class="fil2" d="M11515 8499c31,14 85,17 116,2 -24,-18 -112,-23 -116,-2z"/>
   <path class="fil3" d="M6244 18766l0 -567 115 0 0 251 232 -251 153 0 -214 221 225 346 -148 0 -156 -266 -92 94 0 172 -115 0zm567 0l0 -567 114 0 0 567 -114 0zm222 0l0 -567 172 0 102 387 100 -387 172 0 0 567 -106 0 0 -446 -112 446 -110 0 -111 -446 -1 446 -106 0zm661 0l0 -567 420 0 0 96 -305 0 0 126 283 0 0 95 -283 0 0 154 316 0 0 96 -431 0zm656 0l0 -471 -168 0 0 -96 450 0 0 96 -167 0 0 471 -115 0zm326 -184l112 -11c6,37 20,65 40,82 21,18 48,27 83,27 37,0 64,-8 83,-24 19,-15 28,-34 28,-54 0,-14 -4,-25 -12,-35 -8,-9 -21,-17 -41,-24 -13,-5 -44,-13 -91,-25 -61,-15 -104,-34 -129,-56 -34,-32 -52,-70 -52,-115 0,-29 8,-56 25,-81 16,-25 40,-44 70,-58 31,-13 68,-19 112,-19 70,0 124,15 160,47 36,31 54,73 56,126l-115 4c-5,-29 -15,-50 -31,-63 -16,-13 -40,-19 -72,-19 -33,0 -59,7 -77,20 -12,9 -18,21 -18,36 0,13 5,25 17,34 14,12 49,25 105,38 55,13 96,27 123,41 26,14 47,33 62,58 15,24 23,54 23,90 0,32 -9,63 -27,91 -18,29 -44,50 -77,63 -33,14 -74,21 -123,21 -72,0 -127,-16 -165,-49 -39,-33 -62,-82 -69,-145zm558 -383l115 0 0 307c0,49 1,81 4,95 5,23 17,42 35,56 18,14 43,21 75,21 32,0 56,-7 72,-20 17,-13 27,-29 30,-49 3,-19 5,-51 5,-96l0 -314 115 0 0 298c0,68 -3,116 -10,144 -6,29 -17,52 -34,72 -16,19 -38,34 -66,46 -28,11 -64,17 -109,17 -54,0 -95,-6 -123,-19 -27,-12 -49,-28 -66,-48 -16,-20 -26,-41 -32,-63 -7,-33 -11,-81 -11,-144l0 -303zm792 567l0 -567 111 0 233 380 0 -380 107 0 0 567 -115 0 -230 -373 0 373 -106 0zm548 -280c0,-58 9,-106 26,-146 13,-29 31,-55 53,-78 22,-23 47,-40 73,-51 35,-15 76,-22 122,-22 84,0 151,26 201,78 50,52 75,124 75,216 0,92 -25,164 -74,215 -50,52 -117,78 -200,78 -84,0 -151,-26 -201,-77 -50,-52 -75,-123 -75,-213zm118 -4c0,64 15,113 45,146 29,33 67,50 113,50 46,0 83,-16 112,-49 30,-33 44,-83 44,-149 0,-65 -14,-113 -42,-145 -29,-32 -67,-48 -114,-48 -47,0 -86,16 -115,48 -28,33 -43,82 -43,147zm876 284l0 -239 -208 -328 135 0 134 224 130 -224 132 0 -208 329 0 238 -115 0zm818 0l-124 0 -49 -129 -227 0 -47 129 -122 0 220 -567 121 0 228 567zm-210 -225l-79 -210 -77 210 156 0zm267 225l0 -567 115 0 0 567 -115 0zm224 -567l226 0c45,0 79,2 101,6 22,3 42,11 59,23 18,12 32,27 44,47 11,20 17,42 17,66 0,27 -7,51 -21,73 -15,22 -34,39 -58,50 34,10 60,27 79,52 19,24 28,52 28,85 0,26 -6,51 -18,76 -12,24 -29,44 -49,58 -21,15 -47,24 -77,27 -19,2 -65,3 -138,4l-193 0 0 -567zm115 94l0 131 74 0c45,0 73,-1 83,-2 20,-2 35,-9 47,-20 11,-12 16,-26 16,-44 0,-18 -4,-32 -14,-43 -10,-11 -24,-18 -43,-20 -11,-1 -44,-2 -98,-2l-65 0zm0 225l0 152 106 0c41,0 67,-1 78,-3 17,-3 31,-11 42,-23 10,-12 16,-28 16,-48 0,-17 -4,-32 -13,-44 -8,-12 -20,-20 -35,-26 -16,-5 -50,-8 -102,-8l-92 0zm967 248l-123 0 -49 -129 -228 0 -47 129 -121 0 220 -567 121 0 227 567zm-210 -225l-78 -210 -77 210 155 0z"/>
  </g>
 </g>
</svg>
